<?xml version="1.0" encoding="UTF-8"?>
<svg version="1.1" xmlns="http://www.w3.org/2000/svg" width="502" height="145">
<path d="M0 0 C1.32 1.32 2.64 2.64 4 4 C2.02 8.62 0.04 13.24 -2 18 C-7.11872811 18 -8.64765207 17.26684788 -13 15 C-20.01289273 13.29321982 -27.22236163 12.67705375 -33.8125 16 C-39.73326699 19.7774069 -43.66140998 24.64563992 -45.375 31.5 C-46.94217367 40.95151131 -45.98812615 49.11033903 -40.9375 57.375 C-34.5630504 63.07131666 -27.5330457 64.6609121 -19.10546875 64.41015625 C-14.6541522 63.82224652 -10.66081763 62.42000376 -6.49609375 60.77734375 C-4 60 -4 60 -1 61 C0.421875 63.14453125 0.421875 63.14453125 1.75 65.8125 C2.19859375 66.68519531 2.6471875 67.55789062 3.109375 68.45703125 C4.09006113 71.25714824 4.2339225 72.32744896 3 75 C-3.7975769 81.57409492 -14.39637662 83.10992307 -23.4375 83.4375 C-35.77684746 83.08368359 -47.04505446 78.46278925 -56.09765625 70.05078125 C-60.03308701 65.79784227 -62.7256473 61.30682297 -65 56 C-65.391875 55.154375 -65.78375 54.30875 -66.1875 53.4375 C-69.98358443 42.0492467 -68.13643547 29.68651633 -63.375 18.875 C-56.92686605 7.08623602 -47.29751799 0.63269881 -34.8046875 -3.21484375 C-23.35037112 -6.42141421 -10.75260284 -5.17109907 0 0 Z " fill="#ED2938" transform="translate(92,33)"/>
<path d="M0 0 C5.24695799 -0.07466663 10.49360043 -0.12884421 15.7409668 -0.16479492 C17.52259719 -0.17979643 19.30419119 -0.20020433 21.08569336 -0.22631836 C23.66008535 -0.26308509 26.2339853 -0.27981285 28.80859375 -0.29296875 C29.59334579 -0.30845261 30.37809784 -0.32393646 31.18663025 -0.33988953 C38.63791393 -0.3421108 45.93157812 1.49762248 52 6 C52 6.66 52 7.32 52 8 C52.99 8.33 53.98 8.66 55 9 C60.06150299 16.47008028 61.23705074 25.31992601 59.609375 34.109375 C57.50590199 40.85127567 52.66286206 46.81429215 46.6171875 50.421875 C41.80319126 52.61438814 37.21176366 54.13796791 31.890625 54.09765625 C31.13652344 54.09443359 30.38242187 54.09121094 29.60546875 54.08789062 C28.82816406 54.07951172 28.05085938 54.07113281 27.25 54.0625 C26.45722656 54.05798828 25.66445313 54.05347656 24.84765625 54.04882812 C22.89840492 54.03708565 20.94919262 54.01915146 19 54 C19.00785522 55.21901001 19.00785522 55.21901001 19.01586914 56.46264648 C19.03656994 60.12092322 19.04963803 63.77918767 19.0625 67.4375 C19.07087891 68.71689453 19.07925781 69.99628906 19.08789062 71.31445312 C19.09272461 73.13686523 19.09272461 73.13686523 19.09765625 74.99609375 C19.10551147 76.68496704 19.10551147 76.68496704 19.11352539 78.40795898 C19 81 19 81 18 82 C15.15664952 82.09986975 12.34302837 82.13877881 9.5 82.125 C8.70207031 82.12886719 7.90414063 82.13273437 7.08203125 82.13671875 C1.12660767 82.12660767 1.12660767 82.12660767 0 81 C-0.09504251 78.47458998 -0.12557158 75.97662874 -0.11352539 73.45092773 C-0.11367142 72.66074249 -0.11381744 71.87055725 -0.1139679 71.056427 C-0.11326857 68.43212178 -0.10547527 65.80788664 -0.09765625 63.18359375 C-0.09579214 61.36898335 -0.0943682 59.55437244 -0.09336853 57.73976135 C-0.08954279 52.9540977 -0.07971204 48.1684642 -0.06866455 43.3828125 C-0.05845163 38.50325936 -0.05387117 33.62370136 -0.04882812 28.74414062 C-0.03808982 19.16274714 -0.02101273 9.58137607 0 0 Z M19 15 C19 23.25 19 31.5 19 40 C29.94588316 40.39752695 29.94588316 40.39752695 38.9375 35.3125 C41.26671103 31.57164592 42 29.39922443 42 25 C40.8718318 21.23943932 39.87395824 18.81933585 37 16.125 C31.12641635 13.92240613 25.0660935 13.48347663 19 15 Z " fill="#F5FAFC" transform="translate(259,32)"/>
<path d="M0 0 C6.73720581 6.92435041 7.40542199 15.0917746 7.3828125 24.296875 C7.38376923 25.15307434 7.38472595 26.00927368 7.38571167 26.89141846 C7.38639008 28.69340082 7.38455949 30.49538566 7.38037109 32.29736328 C7.37499167 35.0667868 7.38034099 37.83605008 7.38671875 40.60546875 C7.38605842 42.35677119 7.38477821 44.10807354 7.3828125 45.859375 C7.38483673 46.69160583 7.38686096 47.52383667 7.38894653 48.38128662 C7.36496818 54.19753182 7.36496818 54.19753182 6.25 55.3125 C3.38732433 55.38575168 0.549281 55.40488205 -2.3125 55.375 C-3.11880859 55.37048828 -3.92511719 55.36597656 -4.75585938 55.36132812 C-6.75393756 55.34950518 -8.75197783 55.33156914 -10.75 55.3125 C-10.76458252 54.1572583 -10.77916504 53.0020166 -10.79418945 51.81176758 C-10.85226822 47.51572088 -10.9295005 43.22019306 -11.01245117 38.92456055 C-11.04565549 37.0672245 -11.07370141 35.20978863 -11.09643555 33.35229492 C-11.13006442 30.67844202 -11.18238374 28.00550007 -11.23828125 25.33203125 C-11.24467117 24.50476028 -11.2510611 23.67748932 -11.25764465 22.82514954 C-11.37513056 18.19298894 -11.75100227 15.07538037 -14.75 11.3125 C-17.81429776 9.78035112 -20.3665642 10.08311452 -23.75 10.3125 C-26.51441969 11.72009341 -26.51441969 11.72009341 -28.75 13.3125 C-29.41 13.3125 -30.07 13.3125 -30.75 13.3125 C-30.75 27.1725 -30.75 41.0325 -30.75 55.3125 C-36.36 55.3125 -41.97 55.3125 -47.75 55.3125 C-49.4682309 53.5942691 -48.87754321 51.32652251 -48.87939453 48.98242188 C-48.88254669 47.84454224 -48.88569885 46.7066626 -48.88894653 45.53430176 C-48.8869223 44.29579468 -48.88489807 43.0572876 -48.8828125 41.78125 C-48.88376923 40.51986206 -48.88472595 39.25847412 -48.88571167 37.9588623 C-48.88639375 35.28552862 -48.88503529 32.61228563 -48.88037109 29.93896484 C-48.87467381 26.50543309 -48.87795301 23.0719795 -48.88394356 19.63845062 C-48.88841762 16.37354757 -48.88528883 13.10865407 -48.8828125 9.84375 C-48.88483673 8.60524292 -48.88686096 7.36673584 -48.88894653 6.09069824 C-48.88579437 4.9528186 -48.88264221 3.81493896 -48.87939453 2.64257812 C-48.87859894 1.63521606 -48.87780334 0.627854 -48.87698364 -0.41003418 C-48.75 -2.6875 -48.75 -2.6875 -47.75 -3.6875 C-45.08997189 -3.84067991 -42.4737812 -3.91909875 -39.8125 -3.9375 C-39.07064453 -3.958125 -38.32878906 -3.97875 -37.56445312 -4 C-35.41015625 -4.015625 -35.41015625 -4.015625 -31.75 -3.6875 C-31.09 -2.6975 -30.43 -1.7075 -29.75 -0.6875 C-28.863125 -1.161875 -27.97625 -1.63625 -27.0625 -2.125 C-17.62571436 -6.57631398 -8.67140062 -5.32108674 0 0 Z " fill="#F7FCFD" transform="translate(181.75,58.6875)"/>
<path d="M0 0 C5.2340429 4.11069879 7.32655261 9.21049545 8.125 15.75 C8.25847524 18.7053485 8.26532433 21.65528185 8.2578125 24.61328125 C8.25876923 25.4458696 8.25972595 26.27845795 8.26071167 27.13627625 C8.26138908 28.88520382 8.25956554 30.63413397 8.25537109 32.38305664 C8.24998259 35.07118278 8.25534821 37.75914441 8.26171875 40.44726562 C8.26105856 42.14843787 8.25977861 43.84961001 8.2578125 45.55078125 C8.25983673 46.35800125 8.26186096 47.16522125 8.26394653 47.99690247 C8.23997358 53.63502642 8.23997358 53.63502642 7.125 54.75 C4.77186445 54.82271741 2.41666332 54.83370868 0.0625 54.8125 C-1.22785156 54.80347656 -2.51820313 54.79445312 -3.84765625 54.78515625 C-4.84667969 54.77355469 -5.84570312 54.76195312 -6.875 54.75 C-7.535 53.43 -8.195 52.11 -8.875 50.75 C-9.40609375 51.02714844 -9.9371875 51.30429688 -10.484375 51.58984375 C-11.54398437 52.13318359 -11.54398437 52.13318359 -12.625 52.6875 C-13.32109375 53.04714844 -14.0171875 53.40679687 -14.734375 53.77734375 C-21.54207661 56.87062423 -28.769436 56.43276831 -35.69140625 53.9375 C-40.51214476 51.31584614 -44.15111964 46.92164109 -45.875 41.75 C-46.71579794 35.66022061 -45.85395327 31.49852807 -42.296875 26.47265625 C-37.56201054 20.73618585 -32.31218326 18.96230385 -25.125 18.0625 C-19.95094504 17.60642829 -15.00694785 18.04026253 -9.875 18.75 C-10.97286425 13.34212615 -10.97286425 13.34212615 -14.875 9.75 C-21.58297897 8.83256771 -26.73218772 10.20814664 -32.875 12.75 C-34.195 12.75 -35.515 12.75 -36.875 12.75 C-37.57726141 11.50823305 -38.26129109 10.25614401 -38.9375 9 C-39.32035156 8.30390625 -39.70320313 7.6078125 -40.09765625 6.890625 C-41.0316234 4.31869535 -40.99294828 3.23548502 -39.875 0.75 C-28.91492574 -7.80556817 -11.29419579 -7.31226779 0 0 Z M-27.0625 31.875 C-29.15831612 34.6329573 -29.15831612 34.6329573 -28.875 37.9375 C-28.08762767 41.04023828 -28.08762767 41.04023828 -24.875 42.75 C-18.4252423 43.39497577 -15.235543 42.32369533 -9.875 38.75 C-9.875 36.11 -9.875 33.47 -9.875 30.75 C-15.88735774 29.05598696 -21.72987221 28.31991481 -27.0625 31.875 Z " fill="#F6FCFC" transform="translate(363.875,59.25)"/>
<path d="M0 0 C6.42090821 5.19844324 9.19607388 10.49990065 10.80078125 18.5234375 C10.80078125 22.8134375 10.80078125 27.1034375 10.80078125 31.5234375 C-1.40921875 31.5234375 -13.61921875 31.5234375 -26.19921875 31.5234375 C-25.20921875 34.4934375 -24.21921875 37.4634375 -23.19921875 40.5234375 C-16.97602426 42.07923612 -10.75724921 42.59315933 -4.76171875 40.0859375 C-3.91609375 39.5703125 -3.07046875 39.0546875 -2.19921875 38.5234375 C-0.87461326 38.15695533 0.458142 37.81705075 1.80078125 37.5234375 C2.80611792 39.14514129 3.80490032 40.77090987 4.80078125 42.3984375 C5.35765625 43.30335937 5.91453125 44.20828125 6.48828125 45.140625 C7.80078125 47.5234375 7.80078125 47.5234375 7.80078125 49.5234375 C5.9088565 50.51013509 4.01206147 51.4874977 2.11328125 52.4609375 C0.52966797 53.27884766 0.52966797 53.27884766 -1.0859375 54.11328125 C-9.36853881 57.86487356 -19.23921924 57.5872988 -27.77734375 54.69140625 C-35.16551945 51.12839893 -40.47992384 45.2281064 -43.19921875 37.5234375 C-45.53278095 30.20740465 -45.48384391 20.39662851 -42.2265625 13.38671875 C-41.71802734 12.46439453 -41.71802734 12.46439453 -41.19921875 11.5234375 C-40.80863281 10.77449219 -40.41804687 10.02554688 -40.015625 9.25390625 C-36.11025327 2.58269052 -30.60372819 -1.75551484 -23.1875 -4.1171875 C-15.01365834 -5.59458128 -6.96026605 -4.67314488 0 0 Z M-23.19921875 11.5234375 C-25.34696055 14.48583998 -26.19921875 15.83790606 -26.19921875 19.5234375 C-19.59921875 19.5234375 -12.99921875 19.5234375 -6.19921875 19.5234375 C-6.69378422 13.88826527 -6.69378422 13.88826527 -8.82421875 11.2109375 C-13.81998935 7.66131102 -18.50521691 7.6117693 -23.19921875 11.5234375 Z " fill="#F6FBFC" transform="translate(240.19921875,58.4765625)"/>
<path d="M0 0 C6.95302351 0.06737426 14.68529326 2.47769551 20.4375 6.3125 C19.12688409 10.54679756 17.49393741 14.38657404 15.4375 18.3125 C14.75945312 18.0959375 14.08140625 17.879375 13.3828125 17.65625 C6.89567321 15.71549919 1.19654822 14.91663384 -5.5625 15.3125 C-5.2325 16.9625 -4.9025 18.6125 -4.5625 20.3125 C-3.5725 20.61542969 -2.5825 20.91835937 -1.5625 21.23046875 C15.25357534 26.51369647 15.25357534 26.51369647 21.4375 33.3125 C24.03692038 38.64131177 23.68354572 43.65452944 22.4375 49.3125 C19.86134318 54.77395245 15.81569111 57.79867138 10.4375 60.3125 C-0.88685271 63.19803218 -13.50359662 61.18019364 -23.5625 55.3125 C-23.04724397 50.03112571 -21.30772883 46.74028844 -18.5625 42.3125 C-18.04042969 42.50585938 -17.51835937 42.69921875 -16.98046875 42.8984375 C-6.39794491 46.87985944 -6.39794491 46.87985944 4.4375 46.3125 C4.7675 44.0025 5.0975 41.6925 5.4375 39.3125 C4.84324219 39.14234375 4.24898438 38.9721875 3.63671875 38.796875 C0.89505953 37.99527013 -1.83332487 37.15560071 -4.5625 36.3125 C-5.52027344 36.0340625 -6.47804688 35.755625 -7.46484375 35.46875 C-13.93694644 33.40904105 -17.84566928 31.07216897 -21.5625 25.3125 C-23.30853382 21.82043235 -22.98951195 18.13048922 -22.5625 14.3125 C-20.00297707 7.74676727 -15.75675914 4.52353451 -9.5625 1.3125 C-6.30397843 0.38149384 -3.37451631 0.2960102 0 0 Z " fill="#F6FCFD" transform="translate(401.5625,53.6875)"/>
<path d="M0 0 C0.495 0.99 0.495 0.99 1 2 C0.07421875 4.34765625 0.07421875 4.34765625 -1.3125 7.0625 C-1.76238281 7.96097656 -2.21226562 8.85945313 -2.67578125 9.78515625 C-4 12 -4 12 -6 13 C-7.155 12.525625 -8.31 12.05125 -9.5 11.5625 C-14.34570198 9.60284111 -18.84458991 9.71476215 -24 10 C-24.33 11.32 -24.66 12.64 -25 14 C-24.39414062 14.24234375 -23.78828125 14.4846875 -23.1640625 14.734375 C-21.39479102 15.44208359 -19.62804154 16.15611604 -17.86328125 16.875 C-16.04533882 17.58928025 -14.20983127 18.26144431 -12.35546875 18.875 C-5.30344703 21.3015021 -0.38830877 25.22338247 3 32 C3.55674965 37.95293853 3.54141118 42.97348091 0 48 C-5.10588902 53.61917945 -9.8819269 55.52369878 -17.30859375 56.21484375 C-26.89100447 56.59814018 -35.99868858 54.27359162 -44 49 C-42.02 45.04 -40.04 41.08 -38 37 C-36.35 37.66 -34.7 38.32 -33 39 C-24.62433873 41.89576349 -24.62433873 41.89576349 -16 41 C-14.75339676 39.94945399 -14.75339676 39.94945399 -14.625 37.625 C-14.74875 36.75875 -14.8725 35.8925 -15 35 C-18.57086403 32.39228646 -22.06359925 31.32876283 -26.3125 30.25 C-32.52830993 28.42970606 -36.73011429 25.86958876 -41 21 C-43.00841124 16.98317752 -42.60558555 12.3566883 -42 8 C-39.492734 2.40259805 -35.51594936 -0.80561001 -30.02734375 -3.30859375 C-20.2708917 -6.63593867 -8.91693642 -5.04911998 0 0 Z " fill="#F5FBFC" transform="translate(471,59)"/>
<path d="M0 0 C5.61 0 11.22 0 17 0 C17 19.47 17 38.94 17 59 C11.39 59 5.78 59 0 59 C-1.7182309 57.2817691 -1.12754321 55.01402251 -1.12939453 52.66992188 C-1.13254669 51.53204224 -1.13569885 50.3941626 -1.13894653 49.22180176 C-1.1369223 47.98329468 -1.13489807 46.7447876 -1.1328125 45.46875 C-1.13376923 44.20736206 -1.13472595 42.94597412 -1.13571167 41.6463623 C-1.13639375 38.97302862 -1.13503529 36.29978563 -1.13037109 33.62646484 C-1.12467381 30.19293309 -1.12795301 26.7594795 -1.13394356 23.32595062 C-1.13841762 20.06104757 -1.13528883 16.79615407 -1.1328125 13.53125 C-1.13483673 12.29274292 -1.13686096 11.05423584 -1.13894653 9.77819824 C-1.13579437 8.6403186 -1.13264221 7.50243896 -1.12939453 6.33007812 C-1.12859894 5.32271606 -1.12780334 4.315354 -1.12698364 3.27746582 C-1 1 -1 1 0 0 Z " fill="#F7FBFD" transform="translate(107,55)"/>
<path d="M0 0 C2.875 2.5 2.875 2.5 5 5 C5.33 5.33 5.66 5.66 6 6 C6.5573482 11.68495163 5.58551703 14.57083191 2 19 C-1.23977598 20.61988799 -4.4983359 20.56520367 -8 20 C-10.80703896 18.65959381 -11.86054551 17.45254539 -14 15 C-15.26372224 10.91148688 -15.2741007 8.79184647 -13.875 4.75 C-10.05686374 -0.84993318 -6.50677938 -1.85907982 0 0 Z " fill="#F6FBFC" transform="translate(120,29)"/>
<path d="M0 0 C0.72703125 0.3609375 1.4540625 0.721875 2.203125 1.09375 C12.93108556 6.04511641 21.71929015 6.00818929 33 3 C31.875 5 31.875 5 30 7 C26.8125 7.25 26.8125 7.25 24 7 C23.67 7.66 23.34 8.32 23 9 C22.01 9 21.02 9 20 9 C20 8.34 20 7.68 20 7 C16.04 7 12.08 7 8 7 C8 6.34 8 5.68 8 5 C6.35 5 4.7 5 3 5 C3 4.34 3 3.68 3 3 C2.01 2.67 1.02 2.34 0 2 C0 1.34 0 0.68 0 0 Z " fill="#C93242" transform="translate(52,92)"/>
<path d="M0 0 C-1.98 0.99 -3.96 1.98 -6 3 C-6 3.99 -6 4.98 -6 6 C-9.73486879 6.5745952 -13.21293268 7 -17 7 C-14.51228852 3.26843278 -12.65049533 2.811027 -8.5 1.25 C-7.3346875 0.80140625 -6.169375 0.3528125 -4.96875 -0.109375 C-2 -1 -2 -1 0 0 Z " fill="#E43041" transform="translate(59,31)"/>
<path d="M0 0 C5.28137429 0.51525603 8.57221156 2.25477117 13 5 C11.68 8.3 10.36 11.6 9 15 C8.67 15 8.34 15 8 15 C7.75 9.375 7.75 9.375 10 6 C9.34 6 8.68 6 8 6 C7.566875 5.525625 7.13375 5.05125 6.6875 4.5625 C4.55306267 2.58616914 2.83692053 2.38336764 0 2 C0 1.34 0 0.68 0 0 Z " fill="#CC3A48" transform="translate(83,31)"/>
<path d="M0 0 C3.02138567 -0.08149592 6.04053905 -0.14073421 9.0625 -0.1875 C9.91005859 -0.21263672 10.75761719 -0.23777344 11.63085938 -0.26367188 C17.2250736 -0.32846972 21.01960959 0.42533413 26 3 C24 4 24 4 20.5625 3.0625 C13.78595455 1.23233809 6.81374824 1.46537202 0 3 C0 2.01 0 1.02 0 0 Z " fill="#C53341" transform="translate(58,45)"/>
<path d="M0 0 C1.65 0.99 3.3 1.98 5 3 C4.67 4.98 4.34 6.96 4 9 C2.35 9 0.7 9 -1 9 C-1.33 8.34 -1.66 7.68 -2 7 C-1.34 7 -0.68 7 0 7 C-0.185625 6.030625 -0.37125 5.06125 -0.5625 4.0625 C-0.706875 3.051875 -0.85125 2.04125 -1 1 C-0.67 0.67 -0.34 0.34 0 0 Z " fill="#D72D3E" transform="translate(86,42)"/>
<path d="M0 0 C3 1 3 1 4.421875 3.14453125 C4.86015625 4.02496094 5.2984375 4.90539062 5.75 5.8125 C6.19859375 6.68519531 6.6471875 7.55789062 7.109375 8.45703125 C8.07380566 11.21073458 8.16567475 12.35344254 7 15 C6.01 15.495 6.01 15.495 5 16 C5 13.36 5 10.72 5 8 C4.34 8 3.68 8 3 8 C2.67 6.02 2.34 4.04 2 2 C0.68 1.67 -0.64 1.34 -2 1 C-1.34 0.67 -0.68 0.34 0 0 Z " fill="#CA3743" transform="translate(88,93)"/>
<path d="M0 0 C0.66 0.33 1.32 0.66 2 1 C-3.96583144 9.6309795 -3.96583144 9.6309795 -9 12 C-7.54718935 6.67302761 -3.91888622 3.63597198 0 0 Z " fill="#CE3745" transform="translate(40,38)"/>
<path d="M0 0 C1.98 0.66 3.96 1.32 6 2 C6 2.99 6 3.98 6 5 C6.66 5 7.32 5 8 5 C8 5.66 8 6.32 8 7 C6.25 6.875 6.25 6.875 4 6 C1.75 2.9375 1.75 2.9375 0 0 Z " fill="#D12F41" transform="translate(32,97)"/>
<path d="M0 0 C3.95820859 0.56545837 6.6659053 1.80902348 10 4 C9.67 4.66 9.34 5.32 9 6 C6.4375 6.625 6.4375 6.625 4 7 C4 5.35 4 3.7 4 2 C2.68 1.34 1.36 0.68 0 0 Z " fill="#939BAB" transform="translate(301,34)"/>
<path d="M0 0 C-7.28571429 4.57142857 -7.28571429 4.57142857 -12 4 C-11 2 -11 2 -9.00390625 1.11328125 C-7.79541016 0.71689453 -7.79541016 0.71689453 -6.5625 0.3125 C-5.75941406 0.04050781 -4.95632812 -0.23148438 -4.12890625 -0.51171875 C-2 -1 -2 -1 0 0 Z " fill="#CA3948" transform="translate(59,31)"/>
<path d="M0 0 C0.33 0 0.66 0 1 0 C0.67 4.29 0.34 8.58 0 13 C-0.33 13 -0.66 13 -1 13 C-1.22151549 11.20991533 -1.42682213 9.41781838 -1.625 7.625 C-1.74101563 6.62726563 -1.85703125 5.62953125 -1.9765625 4.6015625 C-1.98429687 3.74304688 -1.99203125 2.88453125 -2 2 C-1.34 1.34 -0.68 0.68 0 0 Z " fill="#C52932" transform="translate(45,63)"/>
<path d="M0 0 C-2.64 1.98 -5.28 3.96 -8 6 C-7.39816251 3.97954558 -6.72693904 1.97888961 -6 0 C-4 -1 -4 -1 0 0 Z " fill="#CF3846" transform="translate(57,50)"/>
<path d="M0 0 C0.33 0 0.66 0 1 0 C1.66 3.3 2.32 6.6 3 10 C1.68 9.67 0.36 9.34 -1 9 C-0.67 6.03 -0.34 3.06 0 0 Z " fill="#CA3044" transform="translate(45,77)"/>
<path d="M0 0 C1.32 0.66 2.64 1.32 4 2 C-1.625 5 -1.625 5 -5 5 C-5 4.34 -5 3.68 -5 3 C-3.68 3 -2.36 3 -1 3 C-0.67 2.01 -0.34 1.02 0 0 Z " fill="#C63B49" transform="translate(89,108)"/>
</svg>
