<?xml version="1.0" encoding="UTF-8"?>
<svg version="1.1" xmlns="http://www.w3.org/2000/svg" width="1024" height="1024">
<path d="M0 0 C7.28581253 -0.09364197 14.57149047 -0.16423333 21.85778809 -0.20724869 C25.24297695 -0.22791829 28.62774725 -0.25584479 32.01269531 -0.30175781 C71.84672613 -0.80225931 71.84672613 -0.80225931 87.015625 12.80859375 C97.1105796 23.36440497 100.48494781 36.02485926 100.24609375 50.1875 C99.37634823 63.66165278 94.15561027 74.85727182 84.2734375 84.06640625 C68.45009124 97.52440693 49.05543428 96 29 96 C29.33 110.85 29.66 125.7 30 141 C26.35153995 141.91211501 23.64298469 142.11589698 19.921875 142.09765625 C18.76171875 142.09443359 17.6015625 142.09121094 16.40625 142.08789062 C15.1996875 142.07951172 13.993125 142.07113281 12.75 142.0625 C11.52796875 142.05798828 10.3059375 142.05347656 9.046875 142.04882812 C6.03120054 142.03704815 3.01562502 142.02059853 0 142 C-0.02505615 140.95021973 -0.0501123 139.90043945 -0.07592773 138.81884766 C-0.16996267 134.93118676 -0.2701928 131.04370619 -0.37231445 127.15625 C-0.41567817 125.47237358 -0.4573522 123.78845277 -0.49731445 122.10449219 C-0.55498234 119.68671276 -0.6186865 117.26915705 -0.68359375 114.8515625 C-0.70030624 114.0963028 -0.71701874 113.34104309 -0.73423767 112.56289673 C-0.77555107 108.65260201 -0.77555107 108.65260201 -2 105 C-1.34 105 -0.68 105 0 105 C-0.16233124 103.70450729 -0.32466248 102.40901459 -0.49191284 101.07426453 C-1.01939065 96.30379735 -1.14153224 91.60743003 -1.12939453 86.81176758 C-1.13114685 85.94226974 -1.13289917 85.07277191 -1.13470459 84.17692566 C-1.13906857 81.33277326 -1.13620525 78.48868416 -1.1328125 75.64453125 C-1.13348692 73.6539458 -1.1344581 71.66336044 -1.13571167 69.67277527 C-1.13718109 65.51467093 -1.13505774 61.35658815 -1.13037109 57.19848633 C-1.1246631 51.87567594 -1.12796438 46.55291587 -1.13394356 41.23010731 C-1.13756006 37.12513348 -1.13640575 33.02017156 -1.13381577 28.91519737 C-1.13315009 26.9524402 -1.13396232 24.98968194 -1.13629532 23.02692604 C-1.13884094 20.28460456 -1.1349548 17.54236428 -1.12939453 14.80004883 C-1.13141876 13.99419342 -1.13344299 13.18833801 -1.13552856 12.35806274 C-1.11967541 8.12739496 -0.83680895 4.16776957 0 0 Z M30 25 C28.85684253 27.28631494 28.87887268 28.54347406 28.88647461 31.08251953 C28.88655014 31.92324005 28.88662567 32.76396057 28.88670349 33.63015747 C28.89186478 34.53853363 28.89702606 35.44690979 28.90234375 36.3828125 C28.9037587 37.31221649 28.90517365 38.24162048 28.90663147 39.19918823 C28.91223947 42.17449124 28.92479332 45.14971964 28.9375 48.125 C28.94251397 50.13932183 28.94707705 52.15364484 28.95117188 54.16796875 C28.9622115 59.11200802 28.97948151 64.05599135 29 69 C38.31589059 71.59351074 49.42648777 69.92539514 58.4375 66.8125 C63.74645597 63.0573848 67.70195333 58.49023337 69 52 C69.85447414 45.08409995 68.62063064 38.99031305 65 33 C59.95507576 27.58675165 53.897159 25.31359174 46.57519531 24.84472656 C44.04688451 24.80443867 41.52806812 24.8245163 39 24.875 C38.12988281 24.88402344 37.25976562 24.89304687 36.36328125 24.90234375 C34.2420658 24.92565381 32.12099438 24.96151421 30 25 Z " fill="#1B1A1A" transform="translate(534,432)"/>
<path d="M0 0 C0.86625 0.680625 1.7325 1.36125 2.625 2.0625 C1.29722482 5.6620593 -0.30675071 8.72349373 -2.4140625 11.92578125 C-2.99414062 12.81201172 -3.57421875 13.69824219 -4.171875 14.61132812 C-4.77515625 15.52333984 -5.3784375 16.43535156 -6 17.375 C-6.61101562 18.30634766 -7.22203125 19.23769531 -7.8515625 20.19726562 C-9.35543 22.48831376 -10.86334286 24.77658719 -12.375 27.0625 C-16.44465614 26.3346322 -19.42371184 25.11200181 -23.0625 23.125 C-33.46546412 17.8282527 -45.06745484 16.15912989 -56.5 19.1875 C-68.1262219 23.18109789 -76.59983289 29.96276874 -82.1875 40.875 C-84.9097717 46.47546071 -86.80100867 51.84426062 -87.375 58.0625 C-87.44460937 58.78566406 -87.51421875 59.50882812 -87.5859375 60.25390625 C-88.12482469 71.83998089 -83.80172522 82.99007615 -76.81640625 92.09375 C-69.76331776 99.80647986 -59.38617658 104.86208785 -48.95703125 105.3984375 C-47.36741341 105.42823352 -45.77739385 105.44070124 -44.1875 105.4375 C-43.35178467 105.43588867 -42.51606934 105.43427734 -41.6550293 105.43261719 C-32.81754901 105.25864768 -25.65835165 102.83376952 -17.875 98.75 C-14.375 97.0625 -14.375 97.0625 -12.40234375 97.10546875 C-9.32140671 98.55986099 -8.22775184 100.83018716 -6.4375 103.6875 C-5.40302734 105.30785156 -5.40302734 105.30785156 -4.34765625 106.9609375 C-3.69667969 107.98445312 -3.04570312 109.00796875 -2.375 110.0625 C-0.74072261 112.42181653 0.93683374 114.7412714 2.625 117.0625 C-0.17622054 124.25439769 -9.25587855 127.72668423 -15.875 130.8125 C-33.83492293 137.9260381 -54.86171303 137.90531479 -72.75 130.75 C-92.53843599 121.73823928 -106.22206024 107.13397471 -114.375 87.0625 C-121.20378235 66.83517573 -118.85279866 45.10651007 -109.92578125 25.953125 C-106.99686229 20.38741023 -103.73503862 14.64579361 -99.375 10.0625 C-98.715 10.0625 -98.055 10.0625 -97.375 10.0625 C-97.15328125 9.49144531 -96.9315625 8.92039062 -96.703125 8.33203125 C-90.78695842 -1.77765341 -73.99045766 -8.80562987 -63.4375 -11.8125 C-41.22246184 -17.37506106 -18.65993311 -13.11037216 0 0 Z " fill="#EF2246" transform="translate(250.375,441.9375)"/>
<path d="M0 0 C1.35481878 1.1841931 2.68959736 2.39183654 4 3.625 C4.95132813 4.44291016 4.95132813 4.44291016 5.921875 5.27734375 C15.17105777 13.67670845 19.4924741 26.79404938 20.1953125 39.0234375 C20.34112032 48.29264875 20.34112032 48.29264875 18 52.625 C9.29883071 52.64814169 0.59767197 52.66592443 -8.10352135 52.67681217 C-12.14356954 52.68203699 -16.18359672 52.68912739 -20.22363281 52.70043945 C-24.120441 52.71128254 -28.01722895 52.71727987 -31.91405106 52.71987724 C-33.40284163 52.72172892 -34.89163107 52.72534463 -36.38041306 52.73073006 C-38.46115285 52.73795934 -40.54180832 52.73899014 -42.62255859 52.73852539 C-43.80836517 52.740746 -44.99417175 52.74296661 -46.21591187 52.74525452 C-49 52.625 -49 52.625 -51 51.625 C-50.40362909 53.21128608 -49.79754075 54.79392059 -49.1875 56.375 C-48.85105469 57.25671875 -48.51460938 58.1384375 -48.16796875 59.046875 C-47.03112171 61.55630326 -45.6558864 63.44245632 -44 65.625 C-44 66.285 -44 66.945 -44 67.625 C-43.278125 67.91375 -42.55625 68.2025 -41.8125 68.5 C-40.0781144 69.19375424 -38.35087614 69.90610819 -36.63671875 70.6484375 C-28.19356416 73.77553179 -18.56838236 72.86535686 -10 70.625 C-9.67 69.965 -9.34 69.305 -9 68.625 C-6.8203125 67.30078125 -6.8203125 67.30078125 -4.125 65.9375 C-3.24070312 65.47988281 -2.35640625 65.02226563 -1.4453125 64.55078125 C1 63.625 1 63.625 4 64.625 C5.71875 66.98828125 5.71875 66.98828125 7.5 69.9375 C9.94785417 73.97720586 9.94785417 73.97720586 12.71875 77.79296875 C14 79.625 14 79.625 14 82.625 C5.92440608 91.33493061 -8.30273568 96.47614065 -19.953125 96.92578125 C-21.7186466 96.9452843 -23.48440634 96.94872131 -25.25 96.9375 C-26.17731934 96.93186035 -27.10463867 96.9262207 -28.06005859 96.92041016 C-42.24924528 96.66973535 -54.60199242 92.46398752 -65.15234375 82.671875 C-70.58780238 76.65035212 -74.82829735 69.45536447 -77 61.625 C-77.20367187 60.903125 -77.40734375 60.18125 -77.6171875 59.4375 C-81.10540879 44.9112086 -79.68892396 28.31740403 -72.25 15.1875 C-71.20587128 13.63948826 -70.12200682 12.11753001 -69 10.625 C-68.42507813 9.84640625 -67.85015625 9.0678125 -67.2578125 8.265625 C-51.58832869 -11.1099193 -20.05215977 -14.97994398 0 0 Z M-43.75 19.8125 C-48.05972551 25.18344496 -48.05972551 25.18344496 -50 31.625 C-36.47 31.625 -22.94 31.625 -9 31.625 C-10.09016558 25.0840065 -11.42688965 22.9882333 -16 18.625 C-24.71907006 12.39709282 -35.49440314 13.24554795 -43.75 19.8125 Z " fill="#1C1B1B" transform="translate(501,479.375)"/>
<path d="M0 0 C7.74889112 5.69655323 12.00203362 14.00610086 15 23 C15.11259143 24.32878298 15.17581246 25.66214334 15.20532227 26.99536133 C15.23523254 28.20264893 15.23523254 28.20264893 15.26574707 29.43432617 C15.2824646 30.30806885 15.29918213 31.18181152 15.31640625 32.08203125 C15.34764587 33.45391602 15.34764587 33.45391602 15.3795166 34.85351562 C15.44565081 37.8397587 15.50442273 40.82609015 15.5625 43.8125 C15.6053612 45.85571344 15.64824866 47.89892633 15.69116211 49.94213867 C16.0146392 65.96319385 16.12466363 81.97592912 16 98 C14.84213989 98.03758423 14.84213989 98.03758423 13.66088867 98.07592773 C10.16958819 98.19184007 6.67856078 98.31458824 3.1875 98.4375 C1.97255859 98.47681641 0.75761719 98.51613281 -0.49414062 98.55664062 C-1.65751953 98.59853516 -2.82089844 98.64042969 -4.01953125 98.68359375 C-5.09307861 98.72025146 -6.16662598 98.75690918 -7.27270508 98.79467773 C-10.09311553 98.89541847 -10.09311553 98.89541847 -13 100 C-13.33 98.02 -13.66 96.04 -14 94 C-14.66 94 -15.32 94 -16 94 C-15.67 93.34 -15.34 92.68 -15 92 C-14.84944943 90.6710019 -14.75142618 89.335777 -14.68359375 88 C-14.62051025 86.79911743 -14.62051025 86.79911743 -14.55615234 85.57397461 C-14.49741943 84.29985718 -14.49741943 84.29985718 -14.4375 83 C-14.3957666 82.14092041 -14.3540332 81.28184082 -14.31103516 80.39672852 C-13.19481594 70.41044694 -13.19481594 70.41044694 -15 61 C-14.88204179 58.36363406 -14.70989448 55.75407013 -14.5 53.125 C-13.15697683 38.88123043 -13.15697683 38.88123043 -18 26 C-23.14517355 21.84007245 -27.5729444 21.37132457 -34.12109375 21.6171875 C-38.45124969 22.19297486 -40.58737691 23.24085793 -44 26 C-47.33817417 31.34107867 -48.11701577 35.93882302 -48.20532227 42.14550781 C-48.22526749 43.38649231 -48.24521271 44.62747681 -48.26576233 45.90606689 C-48.28274393 47.255085 -48.29962283 48.60410441 -48.31640625 49.953125 C-48.33698876 51.33746951 -48.35798557 52.72180792 -48.37937927 54.10614014 C-48.43446607 57.742544 -48.48393414 61.37900333 -48.53222656 65.01550293 C-48.58253964 68.72913525 -48.63817442 72.44268744 -48.69335938 76.15625 C-48.80077704 83.43743206 -48.90225808 90.71868094 -49 98 C-52.80262631 98.6965462 -55.2967757 99.00997026 -59 98 C-63.49903191 97.7835042 -63.49903191 97.7835042 -67.890625 98.56640625 C-70.59312678 99.12192051 -72.56809432 98.66239995 -75.25 98.0625 C-76.14203125 97.86785156 -77.0340625 97.67320312 -77.953125 97.47265625 C-78.96632813 97.23869141 -78.96632813 97.23869141 -80 97 C-79.73703125 95.824375 -79.73703125 95.824375 -79.46875 94.625 C-78.83181186 92.09290984 -78.83181186 92.09290984 -79.5 90 C-80 88 -80 88 -79.5 85.7578125 C-78.93171988 82.62339247 -79.15144952 80.03571912 -79.5 76.875 C-80.10881801 71.32645403 -80.10881801 71.32645403 -79 68 C-79 66.989375 -79 65.97875 -79 64.9375 C-79 62 -79 62 -78 60 C-78.66 59.67 -79.32 59.34 -80 59 C-79.9278125 57.95328125 -79.855625 56.9065625 -79.78125 55.828125 C-79.12960123 45.55016293 -78.89089719 35.29872763 -78.875 25 C-78.87048828 23.76540039 -78.86597656 22.53080078 -78.86132812 21.25878906 C-78.86326172 20.10088867 -78.86519531 18.94298828 -78.8671875 17.75 C-78.86831543 16.71359375 -78.86944336 15.6771875 -78.87060547 14.609375 C-78.88840814 11.8866859 -78.88840814 11.8866859 -80 9 C-79.855625 8.443125 -79.71125 7.88625 -79.5625 7.3125 C-79.00232875 5.00957373 -78.96208922 3.17139299 -79 0.8125 C-79 -3 -79 -3 -78 -4 C-75.85441173 -4.08775605 -73.70595579 -4.10695219 -71.55859375 -4.09765625 C-70.25341797 -4.09443359 -68.94824219 -4.09121094 -67.60351562 -4.08789062 C-66.2148431 -4.07953401 -64.82617123 -4.07106905 -63.4375 -4.0625 C-62.04492344 -4.05748666 -60.65234519 -4.05292347 -59.25976562 -4.04882812 C-55.8398013 -4.03699434 -52.41992156 -4.0205088 -49 -4 C-48.67 -0.37 -48.34 3.26 -48 7 C-47.566875 6.29875 -47.13375 5.5975 -46.6875 4.875 C-35.01514819 -7.61170194 -14.15548386 -8.75883949 0 0 Z " fill="#1C1B1A" transform="translate(394,476)"/>
<path d="M0 0 C0.94617188 -0.00773437 1.89234375 -0.01546875 2.8671875 -0.0234375 C14.80144394 0.00962138 27.05484008 3.42668499 35.78125 12 C50.56211856 28.03348454 48.36085688 49.58752913 48.0625 70 C48.01459797 73.7031396 47.97135965 77.4061154 47.94029236 81.10943604 C47.92058886 83.39775559 47.89102152 85.68601701 47.85035706 87.97406006 C47.83560585 89.51782318 47.83560585 89.51782318 47.82055664 91.09277344 C47.8070668 91.99493591 47.79357697 92.89709839 47.77967834 93.82659912 C48.0149244 96.41415911 48.69012936 98.02753959 50 100.25 C49.34 100.25 48.68 100.25 48 100.25 C47.67 101.9 47.34 103.55 47 105.25 C46.67 104.59 46.34 103.93 46 103.25 C44.515 103.745 44.515 103.745 43 104.25 C42.67 103.92 42.34 103.59 42 103.25 C40.5112814 103.16330568 39.018555 103.14296506 37.52734375 103.15234375 C36.17866211 103.15717773 36.17866211 103.15717773 34.80273438 103.16210938 C33.85720703 103.17048828 32.91167969 103.17886719 31.9375 103.1875 C30.98810547 103.19201172 30.03871094 103.19652344 29.06054688 103.20117188 C26.70696935 103.2129989 24.35351523 103.22947975 22 103.25 C21.67 103.91 21.34 104.57 21 105.25 C20.34 101.62 19.68 97.99 19 94.25 C17.5459375 95.61125 17.5459375 95.61125 16.0625 97 C6.64270693 105.0822971 -3.99952279 105.9466323 -16 105.25 C-24.61461738 103.93303886 -32.61463028 99.71346921 -37.92578125 92.7109375 C-43.23790233 84.11519026 -44.67800883 75.47756814 -42.3515625 65.45703125 C-39.09050652 56.4682231 -33.16212328 50.09591284 -24.83203125 45.5 C-11.42183013 39.58101468 4.58970111 40.15302625 19 40.25 C17.77001859 33.9326725 17.77001859 33.9326725 15 28.25 C12.81571431 27.00732962 12.81571431 27.00732962 10 26.25 C8.865625 25.858125 7.73125 25.46625 6.5625 25.0625 C-4.92890244 22.34714026 -15.35634885 25.92817442 -25.5 31 C-28 32.25 -28 32.25 -30 32.25 C-31.12752649 30.02208002 -32.25208139 27.79274113 -33.375 25.5625 C-33.69210937 24.93666016 -34.00921875 24.31082031 -34.3359375 23.66601562 C-36.05472081 20.24635299 -37.64469217 16.82992926 -39 13.25 C-26.87267837 4.06419894 -15.19449466 -0.12420568 0 0 Z M1 61.25 C-1.33333333 61.25 -3.66666667 61.25 -6 61.25 C-6.99 61.745 -6.99 61.745 -8 62.25 C-8 62.91 -8 63.57 -8 64.25 C-8.78375 64.37375 -9.5675 64.4975 -10.375 64.625 C-13.14057822 65.04117993 -13.14057822 65.04117993 -15 67.25 C-15.55998137 70.63346639 -15.54138896 73.86495183 -15 77.25 C-11.64539825 81.07051866 -8.41335121 82.05513313 -3.484375 82.453125 C4.39520987 82.5882036 10.62131358 81.93082502 16.5 76.3125 C20.2910901 71.55826809 19.51129617 66.01628464 19 60.25 C16.37493198 60.22309156 13.75013827 60.20320596 11.125 60.1875 C10.00544922 60.17493164 10.00544922 60.17493164 8.86328125 60.16210938 C4.80154422 60.04311916 4.80154422 60.04311916 1 61.25 Z " fill="#1B1B1A" transform="translate(678,470.75)"/>
<path d="M0 0 C1.2055957 -0.00193359 1.2055957 -0.00193359 2.43554688 -0.00390625 C3.68368164 0.00189453 3.68368164 0.00189453 4.95703125 0.0078125 C5.76978516 0.00394531 6.58253906 0.00007813 7.41992188 -0.00390625 C12.94231995 0.00488038 18.29077921 0.43902078 23.76953125 1.1328125 C23.76953125 1.7928125 23.76953125 2.4528125 23.76953125 3.1328125 C24.73052734 3.37064453 24.73052734 3.37064453 25.7109375 3.61328125 C31.72097636 5.23446908 35.91873531 7.23108533 40.76953125 11.1328125 C37.76953125 17.1328125 34.76953125 23.1328125 31.76953125 29.1328125 C31.10953125 29.1328125 30.44953125 29.1328125 29.76953125 29.1328125 C29.43953125 29.7928125 29.10953125 30.4528125 28.76953125 31.1328125 C28.23328125 30.5140625 27.69703125 29.8953125 27.14453125 29.2578125 C24.45499228 26.8513829 22.17665115 26.19280536 18.76953125 25.1328125 C18.27453125 24.1428125 18.27453125 24.1428125 17.76953125 23.1328125 C9.80812373 21.77674858 2.49957717 21.86710939 -5.23046875 24.1328125 C-6.0843398 27.43848739 -6.0843398 27.43848739 -6.23046875 31.1328125 C-4.85763452 33.67283263 -4.85763452 33.67283263 -2.23046875 35.1328125 C1.41674821 35.94047128 1.41674821 35.94047128 4.76953125 36.1328125 C4.76953125 36.7928125 4.76953125 37.4528125 4.76953125 38.1328125 C5.82011719 38.37515625 6.87070312 38.6175 7.953125 38.8671875 C21.59955164 42.09264741 33.97069055 45.51842258 41.76953125 58.1328125 C45.04930318 65.20482073 45.65442007 73.3466836 43.6171875 80.875 C39.69031408 91.33459833 32.95451115 97.66991615 22.92211914 102.25585938 C14.89837844 105.52468966 6.75083453 105.38074492 -1.79296875 105.2578125 C-2.99244141 105.24878906 -4.19191406 105.23976563 -5.42773438 105.23046875 C-8.36219184 105.20708662 -11.29622109 105.1743153 -14.23046875 105.1328125 C-14.23046875 104.4728125 -14.23046875 103.8128125 -14.23046875 103.1328125 C-15.17921875 103.0709375 -16.12796875 103.0090625 -17.10546875 102.9453125 C-24.5225464 101.89217774 -31.22305493 97.40123811 -37.23046875 93.1328125 C-36.69369963 88.1067016 -34.28628374 84.51041841 -31.66796875 80.3203125 C-31.24322266 79.62744141 -30.81847656 78.93457031 -30.38085938 78.22070312 C-29.33737419 76.52064299 -28.28481579 74.82615774 -27.23046875 73.1328125 C-23.66117174 73.94218228 -20.88997309 75.31558577 -17.66796875 77.0703125 C-8.41514342 81.74164179 0.53294771 83.19008375 10.76953125 81.1328125 C12.99466462 80.3854423 12.99466462 80.3854423 14.76953125 79.1328125 C16.36376845 75.84495109 16.36376845 75.84495109 16.76953125 72.1328125 C15.42690302 69.13217357 14.46193958 67.51639446 11.5625 65.91015625 C10.27279297 65.49443359 10.27279297 65.49443359 8.95703125 65.0703125 C7.97992187 64.74675781 7.0028125 64.42320312 5.99609375 64.08984375 C2.62181949 63.08899969 -0.76963303 62.17332866 -4.16796875 61.2578125 C-15.61752888 58.0187922 -25.16135768 53.84876607 -31.31640625 43.265625 C-34.67663138 35.83613641 -34.31417248 27.2107876 -31.48046875 19.6953125 C-27.44743052 10.94543371 -20.87559384 5.75267352 -11.91796875 2.3203125 C-7.7946644 0.99246873 -4.33289905 0.00680891 0 0 Z " fill="#1B1B1A" transform="translate(770.23046875,470.8671875)"/>
<path d="M0 0 C1.79296875 1.46484375 1.79296875 1.46484375 2.79296875 4.46484375 C2.08032227 6.3659668 2.08032227 6.3659668 0.921875 8.4765625 C0.51259766 9.23388672 0.10332031 9.99121094 -0.31835938 10.77148438 C-0.75599609 11.55716797 -1.19363281 12.34285156 -1.64453125 13.15234375 C-2.07830078 13.94962891 -2.51207031 14.74691406 -2.95898438 15.56835938 C-4.03277888 17.53894929 -5.11567307 19.50394302 -6.20703125 21.46484375 C-9.77738 20.66143238 -12.45012591 19.26792736 -15.64453125 17.46484375 C-23.46325651 13.49342775 -31.43461105 12.32803323 -40.01953125 14.40234375 C-41.07140625 14.75296875 -42.12328125 15.10359375 -43.20703125 15.46484375 C-43.29984375 17.35203125 -43.29984375 17.35203125 -43.39453125 19.27734375 C-43.42933594 19.98503906 -43.46414063 20.69273437 -43.5 21.421875 C-43.35012952 23.49659447 -43.35012952 23.49659447 -42.14453125 25.08203125 C-39.34791097 27.07800621 -36.28433019 27.85700215 -33.01953125 28.77734375 C-31.57463687 29.21322628 -30.13064817 29.65212038 -28.6875 30.09375 C-27.94677246 30.31949707 -27.20604492 30.54524414 -26.44287109 30.77783203 C-15.43404788 34.16053879 -5.8750378 37.24848972 1.79296875 46.46484375 C1.79296875 47.12484375 1.79296875 47.78484375 1.79296875 48.46484375 C2.45296875 48.79484375 3.11296875 49.12484375 3.79296875 49.46484375 C7.23630222 57.62139254 7.20546104 67.75651411 4.10546875 76.02734375 C-0.15610704 85.02731501 -6.66093714 90.29681557 -15.89453125 93.71484375 C-30.13410593 98.62920899 -47.2939954 98.41518202 -61.20703125 92.46484375 C-72.03770419 87.17230403 -72.03770419 87.17230403 -74.47705078 83.61035156 C-75.20703125 81.46484375 -75.20703125 81.46484375 -74.51611328 79.45019531 C-74.08669434 78.75893555 -73.65727539 78.06767578 -73.21484375 77.35546875 C-72.52841797 76.22431641 -72.52841797 76.22431641 -71.828125 75.0703125 C-71.33441406 74.29300781 -70.84070313 73.51570312 -70.33203125 72.71484375 C-69.60306641 71.52568359 -69.60306641 71.52568359 -68.859375 70.3125 C-67.65594815 68.3539818 -66.43838158 66.40588237 -65.20703125 64.46484375 C-60.42334947 65.55297737 -56.41741257 67.83544547 -52.08203125 70.08984375 C-48.21069461 71.94135258 -45.22416879 72.59846271 -40.95703125 72.52734375 C-39.10078125 72.49640625 -39.10078125 72.49640625 -37.20703125 72.46484375 C-37.20703125 73.12484375 -37.20703125 73.78484375 -37.20703125 74.46484375 C-35.45422392 74.03873024 -33.7048569 73.59845108 -31.95703125 73.15234375 C-30.9825 72.90871094 -30.00796875 72.66507813 -29.00390625 72.4140625 C-26.14891295 71.44511924 -24.36008378 70.56782529 -22.20703125 68.46484375 C-21.4073434 64.33265863 -21.4073434 64.33265863 -22.20703125 60.46484375 C-27.09302159 56.23890482 -32.75004283 54.87026606 -38.89453125 53.21484375 C-39.84392578 52.94671875 -40.79332031 52.67859375 -41.77148438 52.40234375 C-46.91408941 50.93644028 -46.91408941 50.93644028 -52.20703125 50.46484375 C-52.20703125 49.80484375 -52.20703125 49.14484375 -52.20703125 48.46484375 C-53.44453125 48.18640625 -53.44453125 48.18640625 -54.70703125 47.90234375 C-61.31724016 45.18743652 -66.65724163 40.37295099 -69.51953125 33.75390625 C-72.07668738 25.23973869 -71.89719279 16.59053058 -68.20703125 8.46484375 C-62.86650678 -0.27292534 -53.54893129 -5.46343198 -43.83984375 -8.203125 C-28.10647187 -10.18730395 -13.67943928 -8.41296674 0 0 Z " fill="#1C1C1B" transform="translate(892.20703125,479.53515625)"/>
<path d="M0 0 C1.10601562 -0.00580078 1.10601562 -0.00580078 2.234375 -0.01171875 C6.16175914 -0.00468043 9.48820003 0.34764001 13.375 1.125 C13.705 34.455 14.035 67.785 14.375 102.125 C3.125 104.375 3.125 104.375 -0.9765625 104.1015625 C-2.28173828 104.02421875 -2.28173828 104.02421875 -3.61328125 103.9453125 C-4.48339844 103.88085938 -5.35351562 103.81640625 -6.25 103.75 C-7.61318359 103.66492188 -7.61318359 103.66492188 -9.00390625 103.578125 C-11.21197295 103.43866816 -13.41853162 103.28751427 -15.625 103.125 C-16.79331485 98.49751211 -16.76604 94.03677915 -16.75439453 89.29907227 C-16.75614685 88.42040497 -16.75789917 87.54173767 -16.75970459 86.63644409 C-16.76409804 83.73807792 -16.76119366 80.83977302 -16.7578125 77.94140625 C-16.75848632 75.9226836 -16.759457 73.90396102 -16.76071167 71.88523865 C-16.7621853 67.65615058 -16.76004504 63.42708365 -16.75537109 59.19799805 C-16.74967768 53.78315069 -16.75295249 48.36835295 -16.75894356 42.95350742 C-16.76256131 38.78504565 -16.76140493 34.6165956 -16.75881577 30.44813347 C-16.75814967 28.45188326 -16.75896382 26.45563197 -16.76129532 24.45938301 C-16.76384133 21.66633422 -16.75995359 18.87336514 -16.75439453 16.08032227 C-16.75641876 15.25883194 -16.75844299 14.43734161 -16.76052856 13.59095764 C-16.74483354 9.32348043 -16.47235062 5.32855613 -15.625 1.125 C-10.37040513 0.25154492 -5.32200951 -0.02820853 0 0 Z " fill="#1B1919" transform="translate(286.625,470.875)"/>
<path d="M0 0 C0.85464844 0.09023438 1.70929688 0.18046875 2.58984375 0.2734375 C3.40582031 0.38945312 4.22179687 0.50546875 5.0625 0.625 C5.76117188 0.72039062 6.45984375 0.81578125 7.1796875 0.9140625 C11.25758316 2.45384883 13.19530369 6.90779018 15.0625 10.625 C16.65343965 15.80866602 16.51649237 20.77827083 14.33203125 25.765625 C11.07603206 30.5344115 5.67604135 33.61379223 0.0625 34.75 C-6.27337715 35.09145446 -11.31597929 32.04383062 -15.9375 28 C-18.57944447 23.54171871 -18.84852018 19.72920618 -18.9375 14.625 C-18.98519531 13.75101562 -19.03289062 12.87703125 -19.08203125 11.9765625 C-18.9375 9.625 -18.9375 9.625 -16.8125 7.0625 C-11.39795657 2.47190883 -7.24148981 -0.80581992 0 0 Z " fill="#1D1B1B" transform="translate(288.9375,430.375)"/>
<path d="M0 0 C1.10601562 -0.00580078 1.10601562 -0.00580078 2.234375 -0.01171875 C6.16175914 -0.00468043 9.48820003 0.34764001 13.375 1.125 C13.705 34.455 14.035 67.785 14.375 102.125 C13.715 102.125 13.055 102.125 12.375 102.125 C12.375 69.125 12.375 36.125 12.375 2.125 C3.795 2.455 -4.785 2.785 -13.625 3.125 C-13.625 20.285 -13.625 37.445 -13.625 55.125 C-14.615 54.795 -15.605 54.465 -16.625 54.125 C-16.65040371 47.54134955 -16.66788948 40.95771179 -16.67993164 34.37402344 C-16.68495313 32.13541186 -16.69177158 29.89680355 -16.70043945 27.65820312 C-16.71260069 24.4361897 -16.71825024 21.21421973 -16.72265625 17.9921875 C-16.73039818 16.49653763 -16.73039818 16.49653763 -16.73829651 14.97067261 C-16.73867654 10.23851773 -16.61528154 5.77829527 -15.625 1.125 C-10.37040513 0.25154492 -5.32200951 -0.02820853 0 0 Z " fill="#463D3C" transform="translate(286.625,470.875)"/>
<path d="M0 0 C3.72149267 3.72149267 3.05720375 9.40208591 3.08178711 14.4128418 C3.0682051 16.50833535 3.04980344 18.60380155 3.02734375 20.69921875 C3.0147062 22.98242041 3.00234461 25.26562361 2.99023438 27.54882812 C2.96535079 31.13033908 2.93727487 34.71176921 2.90405273 38.29321289 C2.87391099 41.76188685 2.85610257 45.23045591 2.83984375 48.69921875 C2.82638412 49.77217697 2.8129245 50.84513519 2.79905701 51.9506073 C2.79567825 52.94876968 2.7922995 53.94693207 2.78881836 54.9753418 C2.78136093 55.85135544 2.7739035 56.72736908 2.76622009 57.62992859 C3.01775455 60.1799964 3.71434486 61.80344633 5 64 C4.34 64 3.68 64 3 64 C2.67 65.65 2.34 67.3 2 69 C1.505 68.01 1.505 68.01 1 67 C-0.485 67.495 -0.485 67.495 -2 68 C-2.495 67.505 -2.495 67.505 -3 67 C-4.4887186 66.91330568 -5.981445 66.89296506 -7.47265625 66.90234375 C-8.82133789 66.90717773 -8.82133789 66.90717773 -10.19726562 66.91210938 C-11.14279297 66.92048828 -12.08832031 66.92886719 -13.0625 66.9375 C-14.4865918 66.94426758 -14.4865918 66.94426758 -15.93945312 66.95117188 C-18.29303065 66.9629989 -20.64648477 66.97947975 -23 67 C-23.495 67.99 -23.495 67.99 -24 69 C-24.5625 67.0625 -24.5625 67.0625 -25 65 C-24.505 64.505 -24.505 64.505 -24 64 C-16.08 64 -8.16 64 0 64 C0 42.88 0 21.76 0 0 Z " fill="#252423" transform="translate(723,507)"/>
<path d="M0 0 C22.77 0 45.54 0 69 0 C69 0.99 69 1.98 69 3 C60.29883071 3.02314169 51.59767197 3.04092443 42.89647865 3.05181217 C38.85643046 3.05703699 34.81640328 3.06412739 30.77636719 3.07543945 C26.879559 3.08628254 22.98277105 3.09227987 19.08594894 3.09487724 C17.59715837 3.09672892 16.10836893 3.10034463 14.61958694 3.10573006 C12.53884715 3.11295934 10.45819168 3.11399014 8.37744141 3.11352539 C7.19163483 3.115746 6.00582825 3.11796661 4.78408813 3.12025452 C2 3 2 3 0 2 C0 1.34 0 0.68 0 0 Z " fill="#262525" transform="translate(450,529)"/>
<path d="M0 0 C0.66 0 1.32 0 2 0 C2 25.08 2 50.16 2 76 C2.99 76.33 3.98 76.66 5 77 C2.525 77.495 2.525 77.495 0 78 C-0.02505615 76.9805127 -0.0501123 75.96102539 -0.07592773 74.91064453 C-0.16997004 71.13479646 -0.27019837 67.35913373 -0.37231445 63.58349609 C-0.41567538 61.94812347 -0.45734961 60.31270523 -0.49731445 58.67724609 C-0.55498912 56.32896159 -0.61869129 53.98090696 -0.68359375 51.6328125 C-0.70030624 50.89942657 -0.71701874 50.16604065 -0.73423767 49.41043091 C-0.78637962 45.57797692 -0.78637962 45.57797692 -2 42 C-1.34 42 -0.68 42 0 42 C-0.17402344 40.86691406 -0.34804688 39.73382812 -0.52734375 38.56640625 C-1.36263318 31.04880136 -0.84536084 23.47803816 -0.5625 15.9375 C-0.50917109 14.38869223 -0.4564318 12.83986404 -0.40429688 11.29101562 C-0.27633041 7.5270738 -0.14037916 3.76349849 0 0 Z " fill="#050606" transform="translate(534,495)"/>
<path d="M0 0 C0.66 0 1.32 0 2 0 C2.94137255 2.82411765 3.11725382 4.52918032 3.09765625 7.44921875 C3.09443359 8.29677734 3.09121094 9.14433594 3.08789062 10.01757812 C3.07951172 10.89865234 3.07113281 11.77972656 3.0625 12.6875 C3.05798828 13.58017578 3.05347656 14.47285156 3.04882812 15.39257812 C3.03704983 17.59511987 3.02060164 19.79752599 3 22 C1.84213989 22.03758423 1.84213989 22.03758423 0.66088867 22.07592773 C-2.83041181 22.19184007 -6.32143922 22.31458824 -9.8125 22.4375 C-11.02744141 22.47681641 -12.24238281 22.51613281 -13.49414062 22.55664062 C-14.65751953 22.59853516 -15.82089844 22.64042969 -17.01953125 22.68359375 C-18.09307861 22.72025146 -19.16662598 22.75690918 -20.27270508 22.79467773 C-23.09311553 22.89541847 -23.09311553 22.89541847 -26 24 C-26 18.72 -26 13.44 -26 8 C-25.67 8 -25.34 8 -25 8 C-25 11.63 -25 15.26 -25 19 C-16.75 19 -8.5 19 0 19 C0 12.73 0 6.46 0 0 Z " fill="#292827" transform="translate(407,552)"/>
<path d="M0 0 C19.14 0 38.28 0 58 0 C58 0.66 58 1.32 58 2 C59.32 2.33 60.64 2.66 62 3 C32.3 2.505 32.3 2.505 2 2 C1.34 3.32 0.68 4.64 0 6 C0 4.02 0 2.04 0 0 Z " fill="#333231" transform="translate(534,432)"/>
<path d="M0 0 C0.33 0 0.66 0 1 0 C1.33 17.82 1.66 35.64 2 54 C-7 55.125 -7 55.125 -11.15625 54.87890625 C-12.47109375 54.80639648 -12.47109375 54.80639648 -13.8125 54.73242188 C-14.699375 54.67634766 -15.58625 54.62027344 -16.5 54.5625 C-17.4178125 54.51029297 -18.335625 54.45808594 -19.28125 54.40429688 C-21.52129261 54.2759611 -23.76072975 54.14107403 -26 54 C-26.33 53.34 -26.66 52.68 -27 52 C-25.71222656 52.01160156 -24.42445313 52.02320313 -23.09765625 52.03515625 C-21.41927228 52.0445327 -19.74088674 52.05363305 -18.0625 52.0625 C-17.21236328 52.07087891 -16.36222656 52.07925781 -15.48632812 52.08789062 C-14.67744141 52.09111328 -13.86855469 52.09433594 -13.03515625 52.09765625 C-12.2862915 52.10289307 -11.53742676 52.10812988 -10.76586914 52.11352539 C-8.97332261 52.19341752 -8.97332261 52.19341752 -8 51 C-5.36 51 -2.72 51 0 51 C0 34.17 0 17.34 0 0 Z " fill="#342C2B" transform="translate(297,520)"/>
<path d="M0 0 C0.66 0.33 1.32 0.66 2 1 C2 2.98 2 4.96 2 7 C-1.41065139 8.03974499 -4.52264842 8.11508506 -8.078125 8.09765625 C-9.23828125 8.09443359 -10.3984375 8.09121094 -11.59375 8.08789062 C-12.8003125 8.07951172 -14.006875 8.07113281 -15.25 8.0625 C-16.47203125 8.05798828 -17.6940625 8.05347656 -18.953125 8.04882812 C-21.96879946 8.03704815 -24.98437498 8.02059853 -28 8 C-27.360625 7.690625 -26.72125 7.38125 -26.0625 7.0625 C-24.06389179 6.1654837 -24.06389179 6.1654837 -23 5 C-21.36527118 4.91299658 -19.72685945 4.89298937 -18.08984375 4.90234375 C-17.10048828 4.90556641 -16.11113281 4.90878906 -15.09179688 4.91210938 C-14.05087891 4.92048828 -13.00996094 4.92886719 -11.9375 4.9375 C-10.37032227 4.94426758 -10.37032227 4.94426758 -8.77148438 4.95117188 C-6.1809334 4.96300087 -3.59049441 4.97948311 -1 5 C-0.67 3.35 -0.34 1.7 0 0 Z " fill="#2E2D2C" transform="translate(562,566)"/>
<path d="M0 0 C1.2055957 -0.00193359 1.2055957 -0.00193359 2.43554688 -0.00390625 C3.68368164 0.00189453 3.68368164 0.00189453 4.95703125 0.0078125 C5.76978516 0.00394531 6.58253906 0.00007813 7.41992188 -0.00390625 C12.94231995 0.00488038 18.29077921 0.43902078 23.76953125 1.1328125 C23.76953125 1.7928125 23.76953125 2.4528125 23.76953125 3.1328125 C24.42953125 3.4628125 25.08953125 3.7928125 25.76953125 4.1328125 C25.10953125 4.1328125 24.44953125 4.1328125 23.76953125 4.1328125 C23.76953125 4.7928125 23.76953125 5.4528125 23.76953125 6.1328125 C23.10953125 6.1328125 22.44953125 6.1328125 21.76953125 6.1328125 C21.76953125 5.4728125 21.76953125 4.8128125 21.76953125 4.1328125 C15.03768712 3.25594665 8.49099445 3.00894053 1.70703125 3.0703125 C0.26553711 3.07708008 0.26553711 3.07708008 -1.20507812 3.08398438 C-3.54694297 3.09563544 -5.88867056 3.11199225 -8.23046875 3.1328125 C-8.23046875 2.4728125 -8.23046875 1.8128125 -8.23046875 1.1328125 C-5.41941321 0.33643244 -2.91853205 0.00458631 0 0 Z " fill="#222221" transform="translate(770.23046875,470.8671875)"/>
<path d="M0 0 C2 2 2 2 2.22705078 4.61376953 C2.21657715 5.69255371 2.20610352 6.77133789 2.1953125 7.8828125 C2.18886719 9.04941406 2.18242187 10.21601562 2.17578125 11.41796875 C2.15902344 12.64128906 2.14226562 13.86460937 2.125 15.125 C2.11597656 16.35605469 2.10695313 17.58710937 2.09765625 18.85546875 C2.07402548 21.90383815 2.04108054 24.95182382 2 28 C0.68 28.33 -0.64 28.66 -2 29 C-1.96970703 28.40050537 -1.93941406 27.80101074 -1.90820312 27.18334961 C-1.77033918 24.43481982 -1.63515028 21.68616451 -1.5 18.9375 C-1.45230469 17.99455078 -1.40460938 17.05160156 -1.35546875 16.08007812 C-1.15678747 12.00711194 -0.97288508 7.95715485 -1.03125 3.87890625 C-1 1 -1 1 0 0 Z " fill="#262423" transform="translate(316,507)"/>
<path d="M0 0 C4.97135621 7.45703432 4.95778326 17.31815816 4 26 C3.01 26.99 2.02 27.98 1 29 C0.67 19.43 0.34 9.86 0 0 Z " fill="#232322" transform="translate(630,460)"/>
<path d="M0 0 C2.79908133 2.79908133 2.72362983 5.13081763 3 9 C1 11 1 11 -1.79736328 11.13525391 C-2.95993652 11.08288574 -4.12250977 11.03051758 -5.3203125 10.9765625 C-6.57714844 10.925 -7.83398438 10.8734375 -9.12890625 10.8203125 C-10.46094835 10.75543074 -11.7929795 10.69032366 -13.125 10.625 C-14.46480294 10.56676177 -15.80464687 10.50945844 -17.14453125 10.453125 C-20.43020732 10.31129726 -23.71515936 10.15985087 -27 10 C-27 9.67 -27 9.34 -27 9 C-23.81265063 8.83036895 -20.62510059 8.66483749 -17.4375 8.5 C-16.54224609 8.45230469 -15.64699219 8.40460938 -14.72460938 8.35546875 C-9.80829229 8.10334993 -4.9226912 7.9459787 0 8 C0 5.36 0 2.72 0 0 Z " fill="#353534" transform="translate(697,503)"/>
<path d="M0 0 C1.19605747 4.14909401 0.88470589 7.99095669 0.5625 12.25 C0.15958613 17.8510002 -0.0571872 23.3829461 0 29 C-3.00896237 24.48655645 -3.13569614 22.2050318 -3.125 16.75 C-3.12757813 15.44546875 -3.13015625 14.1409375 -3.1328125 12.796875 C-3.01490662 9.42615405 -2.64650434 6.30435553 -2 3 C-1.34 3 -0.68 3 0 3 C0 2.01 0 1.02 0 0 Z " fill="#262625" transform="translate(425,507)"/>
<path d="M0 0 C0 0.33 0 0.66 0 1 C-6.27 1.33 -12.54 1.66 -19 2 C-19 2.33 -19 2.66 -19 3 C-23.29 3.66 -27.58 4.32 -32 5 C-32 5.66 -32 6.32 -32 7 C-32.66 7 -33.32 7 -34 7 C-34 6.34 -34 5.68 -34 5 C-34.66 4.67 -35.32 4.34 -36 4 C-23.98508913 -0.59273044 -12.68389865 -0.44795078 0 0 Z " fill="#323231" transform="translate(689,471)"/>
<path d="M0 0 C6.93 0.33 13.86 0.66 21 1 C21 1.33 21 1.66 21 2 C13.08 2.495 13.08 2.495 5 3 C4.67 4.65 4.34 6.3 4 8 C3.67 8 3.34 8 3 8 C2.67 10.31 2.34 12.62 2 15 C1.34 15 0.68 15 0 15 C-1 12 -1 12 -0.5625 10.3125 C0.31513544 7.10109805 0.31513544 7.10109805 0 0 Z " fill="#21201F" transform="translate(315,473)"/>
<path d="M0 0 C0.83917969 0.10828125 0.83917969 0.10828125 1.6953125 0.21875 C9.14082655 1.08061015 16.51172488 1.0971102 24 1 C20.4822999 4.33348139 17.80575251 4.35124338 13.0625 4.25 C11.85722656 4.23453125 10.65195312 4.2190625 9.41015625 4.203125 C6.49398483 4.02942407 3.83702651 3.66753565 1 3 C0.67 2.01 0.34 1.02 0 0 Z " fill="#262524" transform="translate(656,572)"/>
<path d="M0 0 C1.31871094 0.07831055 1.31871094 0.07831055 2.6640625 0.15820312 C4.81807499 0.28697561 6.97159659 0.42391463 9.125 0.5625 C7.125 2.5625 7.125 2.5625 4.78662109 2.78955078 C3.83352051 2.77907715 2.88041992 2.76860352 1.8984375 2.7578125 C0.3515625 2.74814453 0.3515625 2.74814453 -1.2265625 2.73828125 C-2.30679688 2.72152344 -3.38703125 2.70476562 -4.5 2.6875 C-5.58796875 2.67847656 -6.6759375 2.66945313 -7.796875 2.66015625 C-10.48980152 2.63653409 -13.18229255 2.60359556 -15.875 2.5625 C-15.875 1.9025 -15.875 1.2425 -15.875 0.5625 C-10.47781966 -0.63195794 -5.46375569 -0.35794183 0 0 Z " fill="#080909" transform="translate(576.875,501.4375)"/>
<path d="M0 0 C0.66 0 1.32 0 2 0 C2 6.27 2 12.54 2 19 C2.99 19.33 3.98 19.66 5 20 C3.35 20.33 1.7 20.66 0 21 C0 14.07 0 7.14 0 0 Z " fill="#020303" transform="translate(534,552)"/>
<path d="M0 0 C0.66 0 1.32 0 2 0 C2.08687496 3.12482562 2.14034568 6.24934246 2.1875 9.375 C2.22520508 10.70917969 2.22520508 10.70917969 2.26367188 12.0703125 C2.27817383 13.34648438 2.27817383 13.34648438 2.29296875 14.6484375 C2.3086792 15.43395996 2.32438965 16.21948242 2.34057617 17.02880859 C2.22818604 17.67930176 2.1157959 18.32979492 2 19 C1.01 19.66 0.02 20.32 -1 21 C-1 20.01 -1 19.02 -1 18 C-1.66 18 -2.32 18 -3 18 C-2.67 17.34 -2.34 16.68 -2 16 C-1.60772162 13.29127482 -1.25430502 10.59248307 -0.9375 7.875 C-0.84662109 7.12089844 -0.75574219 6.36679687 -0.66210938 5.58984375 C-0.43809148 3.72695812 -0.21861427 1.86352748 0 0 Z " fill="#323130" transform="translate(381,552)"/>
<path d="M0 0 C2.35448675 -0.05454409 4.70767875 -0.0939279 7.0625 -0.125 C9.02896484 -0.15980469 9.02896484 -0.15980469 11.03515625 -0.1953125 C15.11824299 0.00582478 18.14999053 0.72834538 22 2 C20 4 20 4 18.15234375 4.18286133 C15.76682873 4.07426149 13.38358101 3.95824528 11 3.8125 C10.16726562 3.78091797 9.33453125 3.74933594 8.4765625 3.71679688 C7.67992187 3.67232422 6.88328125 3.62785156 6.0625 3.58203125 C5.33160156 3.54311768 4.60070312 3.5042041 3.84765625 3.46411133 C2 3 2 3 0 0 Z " fill="#EA344D" transform="translate(199,428)"/>
<path d="M0 0 C0.556875 0.53625 1.11375 1.0725 1.6875 1.625 C2.450625 2.07875 3.21375 2.5325 4 3 C6.73398135 2.29042763 6.73398135 2.29042763 9 1 C9 0.67 9 0.34 9 0 C10.98 0 12.96 0 15 0 C11.33997803 3.05001831 5.92148529 7 1 7 C0.67 4.69 0.34 2.38 0 0 Z " fill="#252323" transform="translate(647,496)"/>
<path d="M0 0 C0.33 0.99 0.66 1.98 1 3 C6.28 3 11.56 3 17 3 C16.67 3.66 16.34 4.32 16 5 C10.72 5 5.44 5 0 5 C-0.33 3.68 -0.66 2.36 -1 1 C-0.67 0.67 -0.34 0.34 0 0 Z " fill="#060505" transform="translate(272,568)"/>
<path d="M0 0 C0.99 0.495 0.99 0.495 2 1 C2.37400786 3.32716 2.70764733 5.66117862 3 8 C3.33 8.33 3.66 8.66 4 9 C4.203125 10.9609375 4.203125 10.9609375 4.25 13.375 C4.27578125 14.16648437 4.3015625 14.95796875 4.328125 15.7734375 C3.93070018 18.47024878 3.07493465 19.30729015 1 21 C0.20971263 18.6291379 -0.04835506 17.21759777 0.5 14.75 C1.07660569 11.57866868 0.87926099 8.89030556 0.5625 5.6875 C0.46066406 4.61886719 0.35882813 3.55023437 0.25390625 2.44921875 C0.17011719 1.64097656 0.08632813 0.83273437 0 0 Z " fill="#423F3E" transform="translate(314,547)"/>
<path d="M0 0 C6.09781001 -0.22084624 11.21642935 -0.01167675 17 2 C17 2.33 17 2.66 17 3 C10.88514973 3.09706112 5.06696699 2.77040851 -1 2 C-0.67 1.34 -0.34 0.68 0 0 Z " fill="#131211" transform="translate(771,490)"/>
<path d="M0 0 C0.7528125 0.27328125 1.505625 0.5465625 2.28125 0.828125 C4.40985155 1.71254395 6.45402531 2.68981311 8.5 3.75 C8.17 4.74 7.84 5.73 7.5 6.75 C6.901875 6.316875 6.30375 5.88375 5.6875 5.4375 C1.17796317 3.05009815 -3.56556298 1.9684862 -8.5 0.75 C-5.17987778 -1.33262212 -3.63999119 -1.37122956 0 0 Z " fill="#252423" transform="translate(777.5,532.25)"/>
<path d="M0 0 C0 1.98 0 3.96 0 6 C-0.33 5.34 -0.66 4.68 -1 4 C-1.99 4.33 -2.98 4.66 -4 5 C-4.33 4.67 -4.66 4.34 -5 4 C-6.51928038 3.92820036 -8.04167482 3.91607993 -9.5625 3.9375 C-10.80193359 3.95103516 -10.80193359 3.95103516 -12.06640625 3.96484375 C-13.02353516 3.98224609 -13.02353516 3.98224609 -14 4 C-11.48637826 1.48637826 -9.90797944 1.44511787 -6.4375 0.875 C-4.95056641 0.62363281 -4.95056641 0.62363281 -3.43359375 0.3671875 C-1 0 -1 0 0 0 Z " fill="#393735" transform="translate(725,570)"/>
<path d="M0 0 C-2.59252575 3.35503332 -5.9190209 4.47293628 -10 5 C-13.36822652 4.87234127 -16.66748016 4.49619008 -20 4 C-20 3.67 -20 3.34 -20 3 C-19.08476563 2.86722656 -18.16953125 2.73445313 -17.2265625 2.59765625 C-16.03804687 2.42105469 -14.84953125 2.24445313 -13.625 2.0625 C-12.44164062 1.88847656 -11.25828125 1.71445312 -10.0390625 1.53515625 C-1.1493984 -0.03024733 -1.1493984 -0.03024733 0 0 Z " fill="#2D2D2C" transform="translate(596,498)"/>
<path d="M0 0 C0.33 0 0.66 0 1 0 C1 4.95 1 9.9 1 15 C0.01 15.33 -0.98 15.66 -2 16 C-1.85975781 13.52039864 -1.7130815 11.04147598 -1.5625 8.5625 C-1.52318359 7.85544922 -1.48386719 7.14839844 -1.44335938 6.41992188 C-1.11328125 1.11328125 -1.11328125 1.11328125 0 0 Z " fill="#0C0B0B" transform="translate(382,528)"/>
<path d="M0 0 C0.33 0 0.66 0 1 0 C1.99939172 7.22533204 1.96290189 12.95664616 0 20 C-0.66 18.68 -1.32 17.36 -2 16 C-1.34 16 -0.68 16 0 16 C-0.08378906 15.34773437 -0.16757812 14.69546875 -0.25390625 14.0234375 C-0.82554104 9.11750856 -1.15311982 4.86872815 0 0 Z " fill="#272625" transform="translate(813,534)"/>
<path d="M0 0 C0.99 0.66 1.98 1.32 3 2 C1.38007835 2.86375896 -0.24611861 3.71575854 -1.875 4.5625 C-3.23238281 5.27599609 -3.23238281 5.27599609 -4.6171875 6.00390625 C-5.40351562 6.33261719 -6.18984375 6.66132812 -7 7 C-7.66 6.67 -8.32 6.34 -9 6 C-8.67 5.01 -8.34 4.02 -8 3 C-5.0625 1.875 -5.0625 1.875 -2 1 C-1.34 0.67 -0.68 0.34 0 0 Z " fill="#2B2A29" transform="translate(882,567)"/>
<path d="M0 0 C0.66 0 1.32 0 2 0 C2 0.99 2 1.98 2 3 C5.3 3.66 8.6 4.32 12 5 C7.71970042 7.14014979 7.11227246 7.15816979 2.75 6.125 C1.41195313 5.81949219 1.41195313 5.81949219 0.046875 5.5078125 C-0.62859375 5.34023438 -1.3040625 5.17265625 -2 5 C-1.34 3.35 -0.68 1.7 0 0 Z " fill="#45403F" transform="translate(316,568)"/>
<path d="M0 0 C0 4.32991847 -2.11505369 5.91377837 -5 9 C-5.99 9.33 -6.98 9.66 -8 10 C-10.1875 8.5625 -10.1875 8.5625 -12 7 C-10.7625 6.5875 -9.525 6.175 -8.25 5.75 C-4.69180176 4.43144781 -2.45806703 2.97016433 0 0 Z " fill="#282827" transform="translate(695,545)"/>
<path d="M0 0 C1.36511719 0.43119141 1.36511719 0.43119141 2.7578125 0.87109375 C3.45648437 1.09925781 4.15515625 1.32742188 4.875 1.5625 C4.875 2.2225 4.875 2.8825 4.875 3.5625 C5.535 3.8925 6.195 4.2225 6.875 4.5625 C3.575 4.2325 0.275 3.9025 -3.125 3.5625 C-3.125 2.9025 -3.125 2.2425 -3.125 1.5625 C-4.445 0.9025 -5.765 0.2425 -7.125 -0.4375 C-4.30685434 -1.84657283 -2.95222796 -0.94622691 0 0 Z " fill="#292928" transform="translate(843.125,526.4375)"/>
<path d="M0 0 C0.66 0.33 1.32 0.66 2 1 C0.8553125 2.299375 0.8553125 2.299375 -0.3125 3.625 C-2.75220073 6.53600655 -4.42998277 9.52943561 -6 13 C-6.66 12.67 -7.32 12.34 -8 12 C-7.41463247 8.33939179 -5.916761 6.45464836 -3.4375 3.75 C-2.79683594 3.04359375 -2.15617188 2.3371875 -1.49609375 1.609375 C-0.75552734 0.81273437 -0.75552734 0.81273437 0 0 Z " fill="#272727" transform="translate(832,479)"/>
<path d="M0 0 C-0.0870005 1.62600941 -0.1951781 3.25089678 -0.3125 4.875 C-0.37050781 5.77992188 -0.42851562 6.68484375 -0.48828125 7.6171875 C-1 10 -1 10 -4 12 C-4 8.37 -4 4.74 -4 1 C-2 0 -2 0 0 0 Z " fill="#3A2B2C" transform="translate(274,439)"/>
<path d="M0 0 C1.6875 0.8125 1.6875 0.8125 2.6875 2.8125 C1.264375 3.0290625 1.264375 3.0290625 -0.1875 3.25 C-3.2059494 3.64185399 -3.2059494 3.64185399 -5.3125 4.8125 C-6.3025 4.1525 -7.2925 3.4925 -8.3125 2.8125 C-2.94258515 -0.23858798 -2.94258515 -0.23858798 0 0 Z " fill="#232322" transform="translate(363.3125,472.1875)"/>
<path d="M0 0 C4.10958767 1.45044271 7.43258745 3.51110752 11 6 C8 7 8 7 6.2109375 6.328125 C5.60507812 5.97234375 4.99921875 5.6165625 4.375 5.25 C3.45847656 4.73179687 3.45847656 4.73179687 2.5234375 4.203125 C1 3 1 3 0 0 Z " fill="#2A2A29" transform="translate(795,515)"/>
<path d="M0 0 C1.18851562 0.10183594 2.37703125 0.20367187 3.6015625 0.30859375 C4.51679688 0.39238281 5.43203125 0.47617187 6.375 0.5625 C6.375 0.8925 6.375 1.2225 6.375 1.5625 C5.63894531 1.61148437 4.90289062 1.66046875 4.14453125 1.7109375 C2.68080078 1.82308594 2.68080078 1.82308594 1.1875 1.9375 C0.22457031 2.00710938 -0.73835938 2.07671875 -1.73046875 2.1484375 C-4.64008938 2.56465853 -6.95390774 3.36124096 -9.625 4.5625 C-9.25 2.625 -9.25 2.625 -8.625 0.5625 C-5.68113377 -0.90943312 -3.25109964 -0.28686173 0 0 Z " fill="#3D3B3A" transform="translate(361.625,495.4375)"/>
<path d="M0 0 C5.53846154 0.61538462 5.53846154 0.61538462 7.875 2.5625 C8.431875 3.2740625 8.431875 3.2740625 9 4 C8.01 4.495 8.01 4.495 7 5 C6.67 4.67 6.34 4.34 6 4 C5.01 4.495 5.01 4.495 4 5 C1.875 4.0625 1.875 4.0625 0 3 C0 2.01 0 1.02 0 0 Z " fill="#272726" transform="translate(796,475)"/>
<path d="M0 0 C1.12894876 0.93274109 2.25300876 1.87140122 3.375 2.8125 C4.00148437 3.33457031 4.62796875 3.85664062 5.2734375 4.39453125 C7 6 7 6 9 9 C4.74822077 8.52758009 2.70030797 6.15035929 0 3 C0 2.01 0 1.02 0 0 Z " fill="#ED1E38" transform="translate(152,552)"/>
<path d="M0 0 C0.33 0.66 0.66 1.32 1 2 C3.11846285 2.68729254 3.11846285 2.68729254 5.5625 3.125 C6.80193359 3.37636719 6.80193359 3.37636719 8.06640625 3.6328125 C8.70449219 3.75398438 9.34257813 3.87515625 10 4 C9.01 5.485 9.01 5.485 8 7 C7.01 7 6.02 7 5 7 C5 6.34 5 5.68 5 5 C4.401875 4.896875 3.80375 4.79375 3.1875 4.6875 C0.71756736 3.91123545 -0.32251235 2.92911079 -2 1 C-1.34 0.67 -0.68 0.34 0 0 Z " fill="#343533" transform="translate(774,507)"/>
<path d="M0 0 C0.33 0 0.66 0 1 0 C1 1.98 1 3.96 1 6 C1.66 6 2.32 6 3 6 C4.625 7.5 4.625 7.5 6 9 C5.67 9.99 5.34 10.98 5 12 C-0.75409836 6.68852459 -0.75409836 6.68852459 -1 3 C-0.67 2.01 -0.34 1.02 0 0 Z " fill="#141413" transform="translate(846,497)"/>
<path d="M0 0 C3.78717347 1.48781815 5.77407001 3.61988409 8 7 C7.67 7.99 7.34 8.98 7 10 C4.3513141 6.80331012 2.06007659 3.60513403 0 0 Z " fill="#EC1D37" transform="translate(244,550)"/>
<path d="M0 0 C0.33 0 0.66 0 1 0 C1.33 2.31 1.66 4.62 2 7 C2.33 7 2.66 7 3 7 C2.67 9.97 2.34 12.94 2 16 C-0.05279359 11.89441282 -0.2216942 10.19793315 -0.125 5.75 C-0.10695313 4.67234375 -0.08890625 3.5946875 -0.0703125 2.484375 C-0.04710937 1.66453125 -0.02390625 0.8446875 0 0 Z " fill="#302F2D" transform="translate(380,509)"/>
<path d="M0 0 C0.66 0 1.32 0 2 0 C2 3.96 2 7.92 2 12 C1.34 12 0.68 12 0 12 C-1.09266193 8.7220142 -0.8361233 8.15868803 0 5 C0.03786901 3.33376361 0.04627845 1.66602403 0 0 Z " fill="#353332" transform="translate(315,476)"/>
<path d="M0 0 C2.64 0 5.28 0 8 0 C8 0.66 8 1.32 8 2 C8.66 2.33 9.32 2.66 10 3 C9.34 3 8.68 3 8 3 C8 3.66 8 4.32 8 5 C7.34 5 6.68 5 6 5 C6 4.34 6 3.68 6 3 C5.38125 2.87625 4.7625 2.7525 4.125 2.625 C2 2 2 2 0 0 Z " fill="#323130" transform="translate(786,472)"/>
<path d="M0 0 C0 0.33 0 0.66 0 1 C-3.96 1.99 -7.92 2.98 -12 4 C-11 1 -11 1 -8.8125 -0.25 C-5.51773102 -1.12860506 -3.29199038 -0.76557916 0 0 Z " fill="#E92E45" transform="translate(199,459)"/>
<path d="M0 0 C0.33 0.99 0.66 1.98 1 3 C-1.0625 5.0625 -1.0625 5.0625 -4 7 C-7.8125 6.75 -7.8125 6.75 -11 6 C-11 5.67 -11 5.34 -11 5 C-9.1128125 4.5978125 -9.1128125 4.5978125 -7.1875 4.1875 C-4.00551199 3.40467463 -1.99755689 2.74664072 0 0 Z " fill="#2B2B29" transform="translate(786,548)"/>
<path d="M0 0 C0.66 0 1.32 0 2 0 C1.71125 0.680625 1.4225 1.36125 1.125 2.0625 C-0.12597355 5.32893093 -1.07447955 8.62846123 -2 12 C-3.1171875 10.265625 -3.1171875 10.265625 -4 8 C-3.3203125 5.859375 -3.3203125 5.859375 -2.125 3.75 C-1.73570312 3.04359375 -1.34640625 2.3371875 -0.9453125 1.609375 C-0.63335937 1.07828125 -0.32140625 0.5471875 0 0 Z " fill="#242322" transform="translate(348,500)"/>
<path d="M0 0 C5.75 0.75 5.75 0.75 8 3 C7.625 5.125 7.625 5.125 7 7 C6.6596875 6.071875 6.6596875 6.071875 6.3125 5.125 C4.62070165 2.38589791 3.00755839 1.94975528 0 1 C0 0.67 0 0.34 0 0 Z " fill="#272625" transform="translate(688,496)"/>
<path d="M0 0 C0.66 0.33 1.32 0.66 2 1 C1.071875 2.1446875 1.071875 2.1446875 0.125 3.3125 C-2.05597052 5.99625809 -2.05597052 5.99625809 -4 9 C-4.99 8.67 -5.98 8.34 -7 8 C-4.69 5.36 -2.38 2.72 0 0 Z " fill="#2A2A29" transform="translate(440,481)"/>
<path d="M0 0 C-0.11409593 1.45922693 -0.24165544 2.91740598 -0.375 4.375 C-0.44460938 5.18710937 -0.51421875 5.99921875 -0.5859375 6.8359375 C-1 9 -1 9 -3 11 C-4.24386556 7.26840331 -3.77811718 4.81984796 -3 1 C-1 0 -1 0 0 0 Z " fill="#2D2B2A" transform="translate(305,445)"/>
<path d="M0 0 C0.515625 0.2475 1.03125 0.495 1.5625 0.75 C0.5725 0.75 -0.4175 0.75 -1.4375 0.75 C-1.4375 1.41 -1.4375 2.07 -1.4375 2.75 C-3.79188733 4.17944945 -4.91782433 4.83661261 -7.6875 4.375 C-8.265 4.16875 -8.8425 3.9625 -9.4375 3.75 C-3.0375 -0.31153846 -3.0375 -0.31153846 0 0 Z " fill="#272625" transform="translate(658.4375,515.25)"/>
<path d="M0 0 C4.67692308 1.47692308 4.67692308 1.47692308 6.3125 4.125 C6.539375 4.74375 6.76625 5.3625 7 6 C6.34 6.66 5.68 7.32 5 8 C4.87625 7.071875 4.87625 7.071875 4.75 6.125 C4.18741541 3.81562433 4.18741541 3.81562433 1.9375 2.75 C1.298125 2.5025 0.65875 2.255 0 2 C0 1.34 0 0.68 0 0 Z " fill="#272726" transform="translate(888,478)"/>
<path d="M0 0 C2.31 0.66 4.62 1.32 7 2 C7 2.66 7 3.32 7 4 C7.99 4.33 8.98 4.66 10 5 C2.25 4.25 2.25 4.25 0 2 C0 1.34 0 0.68 0 0 Z " fill="#272625" transform="translate(759,527)"/>
<path d="M0 0 C0.66 1.32 1.32 2.64 2 4 C1.34 4 0.68 4 0 4 C-0.33 4.99 -0.66 5.98 -1 7 C-1.99 7.33 -2.98 7.66 -4 8 C-2.87548273 5.0280615 -1.77706209 2.66559313 0 0 Z " fill="#212121" transform="translate(432,490)"/>
<path d="M0 0 C5.3592233 0.46601942 5.3592233 0.46601942 7.875 2.5625 C8.431875 3.2740625 8.431875 3.2740625 9 4 C2.375 3.25 2.375 3.25 -1 1 C-0.67 0.67 -0.34 0.34 0 0 Z " fill="#222120" transform="translate(697,474)"/>
<path d="M0 0 C0 3.69418201 -1.28179295 5.77836178 -3 9 C-3.66 8.67 -4.32 8.34 -5 8 C-3.375 2.25 -3.375 2.25 0 0 Z " fill="#141313" transform="translate(642,527)"/>
<path d="M0 0 C0.66 0 1.32 0 2 0 C3.20272819 2.40545638 3.10071472 3.94996953 3.0625 6.625 C3.05347656 7.44226563 3.04445313 8.25953125 3.03515625 9.1015625 C3.02355469 9.72804688 3.01195312 10.35453125 3 11 C1.0210244 7.36383344 0.4748935 4.11574371 0 0 Z " fill="#100F0E" transform="translate(810,529)"/>
<path d="M0 0 C-0.33 0.99 -0.66 1.98 -1 3 C-3.97 3 -6.94 3 -10 3 C-7.14414946 0.14414946 -3.95889689 0 0 0 Z " fill="#121111" transform="translate(600,523)"/>
<path d="M0 0 C0 0.99 0 1.98 0 3 C-0.66 3 -1.32 3 -2 3 C-2.33 3.66 -2.66 4.32 -3 5 C-4.32 3.35 -5.64 1.7 -7 0 C-4.3333581 -1.33332095 -2.83319697 -0.67102033 0 0 Z " fill="#272625" transform="translate(802,497)"/>
<path d="M0 0 C-2.64 1.98 -5.28 3.96 -8 6 C-8.66 5.67 -9.32 5.34 -10 5 C-6.58244111 0.23982869 -6.58244111 0.23982869 -3.875 -0.875 C-2 -1 -2 -1 0 0 Z " fill="#111110" transform="translate(449,479)"/>
<path d="M0 0 C0 2.97 0 5.94 0 9 C-0.66 9 -1.32 9 -2 9 C-2.33 6.36 -2.66 3.72 -3 1 C-1 0 -1 0 0 0 Z " fill="#131212" transform="translate(536,479)"/>
<path d="M0 0 C1.2065625 0.0309375 1.2065625 0.0309375 2.4375 0.0625 C2.7675 0.7225 3.0975 1.3825 3.4375 2.0625 C2.633125 2.18625 1.82875 2.31 1 2.4375 C-0.2684375 2.746875 -0.2684375 2.746875 -1.5625 3.0625 C-1.8925 3.7225 -2.2225 4.3825 -2.5625 5.0625 C-3.125 3.125 -3.125 3.125 -3.5625 1.0625 C-2.5625 0.0625 -2.5625 0.0625 0 0 Z " fill="#2B2A29" transform="translate(701.5625,570.9375)"/>
<path d="M0 0 C0 0.66 0 1.32 0 2 C-4.625 4.125 -4.625 4.125 -8 3 C-4.93882432 0.37613513 -4.26826873 0 0 0 Z " fill="#232220" transform="translate(499,570)"/>
<path d="M0 0 C0.66 0.99 1.32 1.98 2 3 C1.125 5.6875 1.125 5.6875 0 8 C-0.99 7.67 -1.98 7.34 -3 7 C-1.125 2.25 -1.125 2.25 0 0 Z " fill="#212120" transform="translate(742,545)"/>
<path d="M0 0 C0.33 0 0.66 0 1 0 C1.04898438 0.61488281 1.09796875 1.22976563 1.1484375 1.86328125 C1.22320313 2.67152344 1.29796875 3.47976563 1.375 4.3125 C1.44460938 5.11300781 1.51421875 5.91351562 1.5859375 6.73828125 C1.89564426 9.27224441 1.89564426 9.27224441 4 12 C2.0625 11.625 2.0625 11.625 0 11 C-1.26026798 8.47946405 -0.91874445 7.1457902 -0.5625 4.375 C-0.46066406 3.55773437 -0.35882812 2.74046875 -0.25390625 1.8984375 C-0.17011719 1.27195312 -0.08632813 0.64546875 0 0 Z " fill="#393938" transform="translate(662,539)"/>
<path d="M0 0 C-3.22515763 1.73662334 -6.51329166 2.8905928 -10 4 C-9 1 -9 1 -7.25 -0.25 C-4.47275102 -1.17574966 -2.78428335 -0.77341204 0 0 Z " fill="#272625" transform="translate(468,494)"/>
<path d="M0 0 C1.093125 0.226875 2.18625 0.45375 3.3125 0.6875 C-0.3316774 3.1169516 -2.39991272 2.84929575 -6.6875 2.6875 C-4.58035839 -0.41123767 -3.86755884 -0.32775922 0 0 Z " fill="#282726" transform="translate(673.6875,492.3125)"/>
<path d="M0 0 C3.37503669 1.1858237 5.64722731 2.27573689 8 5 C6.68 5.33 5.36 5.66 4 6 C4 5.34 4 4.68 4 4 C3.01 4 2.02 4 1 4 C0.67 2.68 0.34 1.36 0 0 Z " fill="#272725" transform="translate(494,476)"/>
<path d="M0 0 C0 2.31 0 4.62 0 7 C-0.99 7 -1.98 7 -3 7 C-3 5.02 -3 3.04 -3 1 C-1 0 -1 0 0 0 Z " fill="#1E1516" transform="translate(273,561)"/>
<path d="M0 0 C0.86625 0.3403125 0.86625 0.3403125 1.75 0.6875 C1.75 1.6775 1.75 2.6675 1.75 3.6875 C0.76 3.3575 -0.23 3.0275 -1.25 2.6875 C-2.91621616 2.64875079 -4.58394172 2.6424714 -6.25 2.6875 C-2.80384615 -0.38942308 -2.80384615 -0.38942308 0 0 Z " fill="#E72F46" transform="translate(238.25,539.3125)"/>
<path d="M0 0 C3 1 3 1 5 4 C4.625 6.1875 4.625 6.1875 4 8 C0 2.25 0 2.25 0 0 Z " fill="#282826" transform="translate(823,512)"/>
<path d="M0 0 C0.33 0 0.66 0 1 0 C1 2.31 1 4.62 1 7 C0.67 7 0.34 7 0 7 C0 4.69 0 2.38 0 0 Z " fill="#51504E" transform="translate(633,544)"/>
<path d="M0 0 C1.32 0.66 2.64 1.32 4 2 C3.01 2.33 2.02 2.66 1 3 C0.34 2.34 -0.32 1.68 -1 1 C-0.67 0.67 -0.34 0.34 0 0 Z " fill="#D6546A" transform="translate(234,469)"/>
<path d="M0 0 C0.99 0.495 0.99 0.495 2 1 C1.34 1.66 0.68 2.32 0 3 C0 2.01 0 1.02 0 0 Z " fill="#5C5A58" transform="translate(377,571)"/>
<path d="M0 0 C0.66 0.33 1.32 0.66 2 1 C1.01 1 0.02 1 -1 1 C-0.67 0.67 -0.34 0.34 0 0 Z " fill="#494746" transform="translate(673,533)"/>
<path d="M0 0 C4 1 4 1 4 1 Z " fill="#474444" transform="translate(676,495)"/>
<path d="M0 0 C4 1 4 1 4 1 Z " fill="#464443" transform="translate(468,495)"/>
<path d="M0 0 C3 1 3 1 3 1 Z " fill="#464545" transform="translate(496,544)"/>
<path d="" fill="#484846" transform="translate(0,0)"/>
<path d="M0 0 C3 1 3 1 3 1 Z " fill="#51514F" transform="translate(655,472)"/>
<path d="M0 0 C3 1 3 1 3 1 Z " fill="#E2586B" transform="translate(189,463)"/>
<path d="M0 0 C3 1 3 1 3 1 Z " fill="#6C5053" transform="translate(273,461)"/>
<path d="M0 0 C2 1 2 1 2 1 Z " fill="#63605F" transform="translate(552,575)"/>
<path d="M0 0 C2 1 2 1 2 1 Z " fill="#5B5B59" transform="translate(534,575)"/>
<path d="M0 0 C2 1 2 1 2 1 Z " fill="#E35B6F" transform="translate(181,575)"/>
<path d="" fill="#615E5D" transform="translate(0,0)"/>
<path d="M0 0 C2 1 2 1 2 1 Z " fill="#5B5958" transform="translate(726,572)"/>
<path d="" fill="#5A5A56" transform="translate(0,0)"/>
<path d="M0 0 C2 1 2 1 2 1 Z " fill="#575653" transform="translate(817,565)"/>
<path d="" fill="#4F4E4D" transform="translate(0,0)"/>
<path d="M0 0 C2 1 2 1 2 1 Z " fill="#464846" transform="translate(691,546)"/>
<path d="" fill="#4B4A4B" transform="translate(0,0)"/>
<path d="" fill="#4A4A49" transform="translate(0,0)"/>
<path d="" fill="#4A494A" transform="translate(0,0)"/>
<path d="" fill="#454644" transform="translate(0,0)"/>
<path d="" fill="#4A4949" transform="translate(0,0)"/>
<path d="" fill="#4E4D4C" transform="translate(0,0)"/>
<path d="" fill="#4B4947" transform="translate(0,0)"/>
<path d="M0 0 C2 1 2 1 2 1 Z " fill="#4E4C4B" transform="translate(776,494)"/>
<path d="M0 0 C2 1 2 1 2 1 Z " fill="#4D4B4A" transform="translate(771,494)"/>
<path d="" fill="#494646" transform="translate(0,0)"/>
<path d="" fill="#434342" transform="translate(0,0)"/>
<path d="" fill="#454341" transform="translate(0,0)"/>
<path d="" fill="#C95169" transform="translate(0,0)"/>
<path d="" fill="#BBBCBC" transform="translate(0,0)"/>
<path d="" fill="#605D5B" transform="translate(0,0)"/>
<path d="" fill="#605E5C" transform="translate(0,0)"/>
<path d="" fill="#5F5E5C" transform="translate(0,0)"/>
<path d="" fill="#5E5D5A" transform="translate(0,0)"/>
<path d="" fill="#615E5C" transform="translate(0,0)"/>
<path d="" fill="#5F5B59" transform="translate(0,0)"/>
<path d="" fill="#5C5A57" transform="translate(0,0)"/>
<path d="" fill="#5D5B59" transform="translate(0,0)"/>
<path d="" fill="#575452" transform="translate(0,0)"/>
<path d="" fill="#555153" transform="translate(0,0)"/>
<path d="" fill="#676764" transform="translate(0,0)"/>
<path d="" fill="#605F5D" transform="translate(0,0)"/>
<path d="" fill="#615F5A" transform="translate(0,0)"/>
<path d="" fill="#65605C" transform="translate(0,0)"/>
<path d="" fill="#685C5D" transform="translate(0,0)"/>
<path d="" fill="#736461" transform="translate(0,0)"/>
<path d="" fill="#736362" transform="translate(0,0)"/>
<path d="" fill="#DD596A" transform="translate(0,0)"/>
<path d="" fill="#DD5C6D" transform="translate(0,0)"/>
<path d="" fill="#625F5B" transform="translate(0,0)"/>
<path d="" fill="#5E5F5F" transform="translate(0,0)"/>
<path d="" fill="#605E5C" transform="translate(0,0)"/>
<path d="" fill="#575956" transform="translate(0,0)"/>
<path d="" fill="#585552" transform="translate(0,0)"/>
<path d="" fill="#DB5B6E" transform="translate(0,0)"/>
<path d="" fill="#5F5E59" transform="translate(0,0)"/>
<path d="" fill="#5B5958" transform="translate(0,0)"/>
<path d="" fill="#5D5E5D" transform="translate(0,0)"/>
<path d="" fill="#5A5857" transform="translate(0,0)"/>
<path d="" fill="#575855" transform="translate(0,0)"/>
<path d="" fill="#575152" transform="translate(0,0)"/>
<path d="" fill="#A16269" transform="translate(0,0)"/>
<path d="" fill="#5B595A" transform="translate(0,0)"/>
<path d="" fill="#5D5856" transform="translate(0,0)"/>
<path d="" fill="#514D4B" transform="translate(0,0)"/>
<path d="" fill="#5A5555" transform="translate(0,0)"/>
<path d="" fill="#545251" transform="translate(0,0)"/>
<path d="" fill="#E55E71" transform="translate(0,0)"/>
<path d="" fill="#C75464" transform="translate(0,0)"/>
<path d="" fill="#585554" transform="translate(0,0)"/>
<path d="" fill="#55514F" transform="translate(0,0)"/>
<path d="" fill="#4E4E4F" transform="translate(0,0)"/>
<path d="" fill="#4D4A4B" transform="translate(0,0)"/>
<path d="" fill="#515250" transform="translate(0,0)"/>
<path d="" fill="#4E4E4C" transform="translate(0,0)"/>
<path d="" fill="#4A4A48" transform="translate(0,0)"/>
<path d="" fill="#E55D72" transform="translate(0,0)"/>
<path d="" fill="#E76076" transform="translate(0,0)"/>
<path d="" fill="#DB556B" transform="translate(0,0)"/>
<path d="" fill="#E0576B" transform="translate(0,0)"/>
<path d="" fill="#4B4C4C" transform="translate(0,0)"/>
<path d="" fill="#4E4E48" transform="translate(0,0)"/>
<path d="" fill="#474847" transform="translate(0,0)"/>
<path d="" fill="#4B4645" transform="translate(0,0)"/>
<path d="" fill="#4E4C4D" transform="translate(0,0)"/>
<path d="" fill="#4D4C4C" transform="translate(0,0)"/>
<path d="" fill="#4E4848" transform="translate(0,0)"/>
<path d="" fill="#E66577" transform="translate(0,0)"/>
<path d="" fill="#825056" transform="translate(0,0)"/>
<path d="" fill="#E76074" transform="translate(0,0)"/>
<path d="" fill="#4B4B48" transform="translate(0,0)"/>
<path d="" fill="#E8687B" transform="translate(0,0)"/>
<path d="" fill="#E45468" transform="translate(0,0)"/>
<path d="" fill="#4B4949" transform="translate(0,0)"/>
<path d="" fill="#4B4C4A" transform="translate(0,0)"/>
<path d="" fill="#4B4946" transform="translate(0,0)"/>
<path d="" fill="#E9657A" transform="translate(0,0)"/>
<path d="" fill="#E6687E" transform="translate(0,0)"/>
<path d="" fill="#4B4A48" transform="translate(0,0)"/>
<path d="" fill="#CB5F6C" transform="translate(0,0)"/>
<path d="" fill="#E7677B" transform="translate(0,0)"/>
<path d="" fill="#514E4D" transform="translate(0,0)"/>
<path d="" fill="#4C4947" transform="translate(0,0)"/>
<path d="" fill="#805056" transform="translate(0,0)"/>
<path d="" fill="#4D494A" transform="translate(0,0)"/>
<path d="" fill="#4B4846" transform="translate(0,0)"/>
<path d="" fill="#4E4D4C" transform="translate(0,0)"/>
<path d="" fill="#4B4C4A" transform="translate(0,0)"/>
<path d="" fill="#4A4949" transform="translate(0,0)"/>
<path d="" fill="#4E4C4B" transform="translate(0,0)"/>
<path d="" fill="#484646" transform="translate(0,0)"/>
<path d="" fill="#4B4948" transform="translate(0,0)"/>
<path d="" fill="#4E4B4A" transform="translate(0,0)"/>
<path d="" fill="#52504F" transform="translate(0,0)"/>
<path d="" fill="#524E50" transform="translate(0,0)"/>
<path d="" fill="#505150" transform="translate(0,0)"/>
<path d="" fill="#53514F" transform="translate(0,0)"/>
<path d="" fill="#7F5055" transform="translate(0,0)"/>
<path d="" fill="#494A4B" transform="translate(0,0)"/>
<path d="" fill="#51514F" transform="translate(0,0)"/>
<path d="" fill="#605F5E" transform="translate(0,0)"/>
<path d="" fill="#494947" transform="translate(0,0)"/>
<path d="" fill="#484847" transform="translate(0,0)"/>
<path d="" fill="#494849" transform="translate(0,0)"/>
<path d="" fill="#494845" transform="translate(0,0)"/>
<path d="" fill="#7A5254" transform="translate(0,0)"/>
<path d="" fill="#474746" transform="translate(0,0)"/>
<path d="" fill="#4B4A47" transform="translate(0,0)"/>
<path d="" fill="#4A4848" transform="translate(0,0)"/>
<path d="" fill="#4B4C49" transform="translate(0,0)"/>
<path d="" fill="#4F4F4D" transform="translate(0,0)"/>
<path d="" fill="#494949" transform="translate(0,0)"/>
<path d="" fill="#474543" transform="translate(0,0)"/>
<path d="" fill="#484847" transform="translate(0,0)"/>
<path d="" fill="#4A4B46" transform="translate(0,0)"/>
<path d="" fill="#494746" transform="translate(0,0)"/>
<path d="" fill="#4B4847" transform="translate(0,0)"/>
<path d="" fill="#4C4C4B" transform="translate(0,0)"/>
<path d="" fill="#444140" transform="translate(0,0)"/>
<path d="" fill="#4D4D4B" transform="translate(0,0)"/>
<path d="" fill="#494847" transform="translate(0,0)"/>
<path d="" fill="#4A4946" transform="translate(0,0)"/>
<path d="" fill="#4A4744" transform="translate(0,0)"/>
<path d="" fill="#494645" transform="translate(0,0)"/>
<path d="" fill="#4E4949" transform="translate(0,0)"/>
<path d="" fill="#565453" transform="translate(0,0)"/>
<path d="" fill="#4A4A48" transform="translate(0,0)"/>
<path d="" fill="#494745" transform="translate(0,0)"/>
<path d="" fill="#494844" transform="translate(0,0)"/>
<path d="" fill="#565450" transform="translate(0,0)"/>
<path d="" fill="#484945" transform="translate(0,0)"/>
<path d="" fill="#484544" transform="translate(0,0)"/>
<path d="" fill="#535553" transform="translate(0,0)"/>
<path d="" fill="#5A585A" transform="translate(0,0)"/>
<path d="" fill="#474645" transform="translate(0,0)"/>
<path d="" fill="#494747" transform="translate(0,0)"/>
<path d="" fill="#474946" transform="translate(0,0)"/>
<path d="" fill="#4D4B4A" transform="translate(0,0)"/>
<path d="" fill="#4C4A47" transform="translate(0,0)"/>
<path d="" fill="#444442" transform="translate(0,0)"/>
<path d="" fill="#494846" transform="translate(0,0)"/>
<path d="" fill="#4F504C" transform="translate(0,0)"/>
<path d="" fill="#454644" transform="translate(0,0)"/>
<path d="" fill="#4B4746" transform="translate(0,0)"/>
<path d="" fill="#4B4847" transform="translate(0,0)"/>
<path d="" fill="#4E4F4D" transform="translate(0,0)"/>
<path d="" fill="#4D4D4C" transform="translate(0,0)"/>
<path d="" fill="#484644" transform="translate(0,0)"/>
<path d="" fill="#4C4C4B" transform="translate(0,0)"/>
<path d="" fill="#4C4A4A" transform="translate(0,0)"/>
<path d="" fill="#4D4946" transform="translate(0,0)"/>
<path d="" fill="#515150" transform="translate(0,0)"/>
<path d="" fill="#4E4E4C" transform="translate(0,0)"/>
<path d="" fill="#4B4948" transform="translate(0,0)"/>
<path d="" fill="#514E4E" transform="translate(0,0)"/>
<path d="" fill="#535351" transform="translate(0,0)"/>
<path d="" fill="#545452" transform="translate(0,0)"/>
<path d="" fill="#4B4B4A" transform="translate(0,0)"/>
<path d="" fill="#4D4C4A" transform="translate(0,0)"/>
<path d="" fill="#4E4C4A" transform="translate(0,0)"/>
<path d="" fill="#71716E" transform="translate(0,0)"/>
<path d="" fill="#5C5C5B" transform="translate(0,0)"/>
<path d="" fill="#555351" transform="translate(0,0)"/>
<path d="" fill="#4F4C4A" transform="translate(0,0)"/>
<path d="" fill="#444544" transform="translate(0,0)"/>
<path d="" fill="#7B5056" transform="translate(0,0)"/>
<path d="" fill="#4A4948" transform="translate(0,0)"/>
<path d="" fill="#555451" transform="translate(0,0)"/>
<path d="" fill="#656764" transform="translate(0,0)"/>
<path d="" fill="#4E4E4A" transform="translate(0,0)"/>
<path d="" fill="#5E5D5C" transform="translate(0,0)"/>
<path d="" fill="#62625F" transform="translate(0,0)"/>
<path d="" fill="#504F51" transform="translate(0,0)"/>
<path d="" fill="#5C5C5B" transform="translate(0,0)"/>
<path d="" fill="#575755" transform="translate(0,0)"/>
<path d="" fill="#565454" transform="translate(0,0)"/>
<path d="" fill="#524C4E" transform="translate(0,0)"/>
<path d="" fill="#5B5B5B" transform="translate(0,0)"/>
<path d="" fill="#5B5858" transform="translate(0,0)"/>
<path d="" fill="#534D50" transform="translate(0,0)"/>
<path d="" fill="#595654" transform="translate(0,0)"/>
<path d="" fill="#645354" transform="translate(0,0)"/>
<path d="" fill="#DC5268" transform="translate(0,0)"/>
<path d="" fill="#E6546C" transform="translate(0,0)"/>
<path d="" fill="#5F5856" transform="translate(0,0)"/>
<path d="" fill="#6F5158" transform="translate(0,0)"/>
<path d="" fill="#665051" transform="translate(0,0)"/>
<path d="" fill="#DE5367" transform="translate(0,0)"/>
<path d="" fill="#4B4847" transform="translate(0,0)"/>
<path d="" fill="#4C4948" transform="translate(0,0)"/>
<path d="" fill="#755155" transform="translate(0,0)"/>
<path d="" fill="#83575B" transform="translate(0,0)"/>
<path d="" fill="#87585E" transform="translate(0,0)"/>
<path d="" fill="#5B5C5A" transform="translate(0,0)"/>
<path d="" fill="#E4687A" transform="translate(0,0)"/>
<path d="" fill="#C35B68" transform="translate(0,0)"/>
<path d="" fill="#8E6367" transform="translate(0,0)"/>
<path d="" fill="#D1606F" transform="translate(0,0)"/>
<path d="" fill="#5B5B5A" transform="translate(0,0)"/>
<path d="" fill="#6F6066" transform="translate(0,0)"/>
<path d="" fill="#5E5E5C" transform="translate(0,0)"/>
<path d="" fill="#5F5F5E" transform="translate(0,0)"/>
<path d="" fill="#896468" transform="translate(0,0)"/>
<path d="" fill="#D96374" transform="translate(0,0)"/>
<path d="" fill="#E46577" transform="translate(0,0)"/>
<path d="" fill="#5C5E5E" transform="translate(0,0)"/>
<path d="" fill="#606160" transform="translate(0,0)"/>
<path d="" fill="#E16979" transform="translate(0,0)"/>
<path d="" fill="#DE6678" transform="translate(0,0)"/>
</svg>
