<?xml version="1.0" encoding="UTF-8"?>
<svg version="1.1" xmlns="http://www.w3.org/2000/svg" width="500" height="500">
<path d="M0 0 C1.87075195 -0.0309375 1.87075195 -0.0309375 3.77929688 -0.0625 C12.75149434 -0.10021812 22.12853864 0.09341737 29 6.625 C29.92619141 7.47191406 29.92619141 7.47191406 30.87109375 8.3359375 C36.08407785 14.23515738 36.31271301 19.7562358 36.03125 27.28515625 C35.36663577 32.90668491 33.72679881 36.42357533 29.5625 40.25 C26.68176686 42.24286899 23.75522701 43.8196583 20.5625 45.25 C19.5725 45.745 19.5725 45.745 18.5625 46.25 C15.67676648 46.32199934 12.82184885 46.3427068 9.9375 46.3125 C7.17375 46.291875 4.41 46.27125 1.5625 46.25 C1.5625 53.84 1.5625 61.43 1.5625 69.25 C-3.3875 69.25 -8.3375 69.25 -13.4375 69.25 C-14.58268106 61.95302455 -14.58208699 54.75456678 -14.5703125 47.37890625 C-14.57126923 46.06083481 -14.57222595 44.74276337 -14.57321167 43.38475037 C-14.5746775 40.61203829 -14.57256777 37.83935867 -14.56787109 35.06665039 C-14.56213527 31.50664769 -14.56548396 27.94671975 -14.57144356 24.3867197 C-14.57591057 20.98827576 -14.57279187 17.58985232 -14.5703125 14.19140625 C-14.57233673 12.90923721 -14.57436096 11.62706818 -14.57644653 10.30604553 C-14.57329437 9.13069748 -14.57014221 7.95534943 -14.56689453 6.74438477 C-14.56609894 5.70484146 -14.56530334 4.66529816 -14.56448364 3.59425354 C-14.23971451 -2.40133111 -4.52802606 0.01821227 0 0 Z M1.5625 13.25 C1.5625 20.18 1.5625 27.11 1.5625 34.25 C7.91615014 34.45687989 7.91615014 34.45687989 13.5625 33.25 C14.5525 32.92 15.5425 32.59 16.5625 32.25 C16.5625 31.59 16.5625 30.93 16.5625 30.25 C17.2225 30.25 17.8825 30.25 18.5625 30.25 C20.79400482 25.91825536 20.54167594 22.96784771 19.5625 18.25 C19.2325 17.59 18.9025 16.93 18.5625 16.25 C17.9025 16.25 17.2425 16.25 16.5625 16.25 C16.5625 15.59 16.5625 14.93 16.5625 14.25 C11.33544503 12.85611868 7.38402988 13.25 1.5625 13.25 Z " fill="#E7ECEE" transform="translate(272.4375,209.75)"/>
<path d="M0 0 C-0.46588495 5.70709064 -1.93757784 9.15939723 -5 14 C-5.80050781 13.69255859 -5.80050781 13.69255859 -6.6171875 13.37890625 C-14.54788083 10.5112334 -22.26658175 8.43824945 -30.25390625 12.0703125 C-35.9649476 15.11109067 -38.11804626 18.35765549 -40.26953125 24.35546875 C-42.41574441 32.12544901 -40.95471217 39.00320155 -37 46 C-36.01 46.66 -35.02 47.32 -34 48 C-34 48.66 -34 49.32 -34 50 C-33.05125 50.144375 -32.1025 50.28875 -31.125 50.4375 C-28 51 -28 51 -26 52 C-18.26679813 52.92314151 -12.06693926 51.00949505 -5 48 C0.55580866 56.261959 0.55580866 56.261959 1 61 C-9.42672321 67.38370809 -19.9879547 68.31425607 -32 67 C-38.58192791 65.27009015 -43.92122324 62.55087523 -49 58 C-49 57.34 -49 56.68 -49 56 C-49.66 56 -50.32 56 -51 56 C-52.4375 54.0234375 -52.4375 54.0234375 -54 51.375 C-54.515625 50.51648438 -55.03125 49.65796875 -55.5625 48.7734375 C-60.05599443 40.10392378 -60.29321596 30.2879722 -58.34765625 20.828125 C-55.03939973 10.77556871 -48.60162404 2.88237451 -39.1796875 -1.9296875 C-26.7350272 -7.58635127 -11.92343235 -6.19049535 0 0 Z " fill="#EA2838" transform="translate(122,213)"/>
<path d="M0 0 C4.2431691 3.61764048 5.73654329 7.6535612 7 13 C7.24291992 16.50097656 7.24291992 16.50097656 7.23046875 20.140625 C7.22853516 21.45804688 7.22660156 22.77546875 7.22460938 24.1328125 C7.21530396 25.14649902 7.21530396 25.14649902 7.20581055 26.18066406 C7.18742402 28.25858704 7.18530217 30.33606618 7.18554688 32.4140625 C7.14061722 42.57814833 7.14061722 42.57814833 6 46 C4.04196493 46.05389087 2.08351091 46.09274217 0.125 46.125 C-0.96554687 46.14820313 -2.05609375 46.17140625 -3.1796875 46.1953125 C-6 46 -6 46 -8 44 C-8.9075 44.495 -9.815 44.99 -10.75 45.5 C-16.59628599 47.96658719 -23.4458309 48.34793447 -29.41015625 46.0859375 C-33.78713941 43.54974165 -36.85293669 40.65197052 -39 36 C-39.8105507 31.30556054 -39.48065312 27.9797929 -37.375 23.6875 C-32.13016085 17.75255043 -26.34638413 15.33848861 -18.59375 14.84765625 C-15.05705653 14.79598378 -12.38453012 14.87182329 -9 16 C-9.60183749 13.97954558 -10.27306096 11.97888961 -11 10 C-14.19663009 8.40168495 -17.52188668 8.62330903 -21 9 C-23.44168483 9.82997982 -25.65917937 10.89843735 -28 12 C-28.99 12 -29.98 12 -31 12 C-31.72767003 10.76115681 -32.43154815 9.50831659 -33.125 8.25 C-33.51945312 7.55390625 -33.91390625 6.8578125 -34.3203125 6.140625 C-35 4 -35 4 -34.1171875 1.734375 C-33.74851562 1.16203125 -33.37984375 0.5896875 -33 0 C-31.68 0 -30.36 0 -29 0 C-29 -0.66 -29 -1.32 -29 -2 C-19.57364849 -5.50747963 -8.54807823 -5.76415296 0 0 Z M-23 28 C-23.88658466 30.59122743 -23.88658466 30.59122743 -24 33 C-22.14215435 34.93525589 -20.79201317 35.98087695 -18.05859375 36.046875 C-14.26133126 35.62728798 -12.26289416 35.17526277 -9 33 C-8.7497843 29.91634129 -8.7497843 29.91634129 -9 27 C-14.47913109 24.56483063 -18.11794319 24.17352304 -23 28 Z " fill="#E0E6E8" transform="translate(346,233)"/>
<path d="M0 0 C4.72573823 3.3755273 7.91512215 7.32819456 9.625 12.875 C9.79057141 15.69879366 9.85853164 18.41828634 9.8203125 21.23828125 C9.8174826 22.03026413 9.81465271 22.82224701 9.81173706 23.63822937 C9.80058863 26.15480999 9.77549422 28.67102789 9.75 31.1875 C9.73996329 32.89908338 9.73083864 34.61067237 9.72265625 36.32226562 C9.70066681 40.50664906 9.66617408 44.69076314 9.625 48.875 C4.675 48.875 -0.275 48.875 -5.375 48.875 C-5.44847656 45.71357422 -5.44847656 45.71357422 -5.5234375 42.48828125 C-5.57752219 40.43621009 -5.63480006 38.38425103 -5.69238281 36.33227539 C-5.73055149 34.9114627 -5.76542513 33.49055737 -5.796875 32.06958008 C-5.84279065 30.02131145 -5.90073805 27.97367392 -5.9609375 25.92578125 C-5.9923584 24.69512939 -6.0237793 23.46447754 -6.05615234 22.1965332 C-6.47354536 17.84842295 -7.26799844 14.98200156 -10.375 11.875 C-13.83164078 11.49927818 -15.69420759 11.42113839 -18.625 13.375 C-19.2025 13.87 -19.78 14.365 -20.375 14.875 C-21.035 14.875 -21.695 14.875 -22.375 14.875 C-22.375 26.095 -22.375 37.315 -22.375 48.875 C-27.325 48.875 -32.275 48.875 -37.375 48.875 C-37.39964247 42.05737576 -37.41783244 35.2397772 -37.42993164 28.42211914 C-37.43497333 26.10082549 -37.44180651 23.77953503 -37.45043945 21.45825195 C-37.46251225 18.12971205 -37.46822979 14.80121398 -37.47265625 11.47265625 C-37.47781754 10.42787613 -37.48297882 9.38309601 -37.48829651 8.30665588 C-37.48837204 7.34573532 -37.48844757 6.38481476 -37.48852539 5.39477539 C-37.490746 4.54428116 -37.49296661 3.69378693 -37.49525452 2.81752014 C-37.375 0.875 -37.375 0.875 -36.375 -0.125 C-34.02186445 -0.19771741 -31.66666332 -0.20870868 -29.3125 -0.1875 C-28.02214844 -0.17847656 -26.73179687 -0.16945312 -25.40234375 -0.16015625 C-24.40332031 -0.14855469 -23.40429688 -0.13695312 -22.375 -0.125 C-22.375 0.535 -22.375 1.195 -22.375 1.875 C-21.281875 1.38 -20.18875 0.885 -19.0625 0.375 C-12.77225237 -1.97127354 -6.3642029 -2.12140097 0 0 Z " fill="#E6EAEC" transform="translate(190.375,230.125)"/>
<path d="M0 0 C5.47281242 3.29520916 8.94733489 8.02790941 11.00390625 14.01171875 C11.99430541 18.72976198 11.89847908 23.58558793 11.5 28.375 C10.5 29.375 10.5 29.375 7.63256836 29.48852539 C6.38096924 29.48328857 5.12937012 29.47805176 3.83984375 29.47265625 C2.84314415 29.47053383 2.84314415 29.47053383 1.8263092 29.46836853 C-0.30333899 29.46275518 -2.43288339 29.45020054 -4.5625 29.4375 C-6.00325369 29.43248671 -7.44400903 29.42792351 -8.88476562 29.42382812 C-12.42321102 29.41278145 -15.96159539 29.39550792 -19.5 29.375 C-18.25023244 33.02816671 -17.82901247 34.15565836 -14.5 36.375 C-8.61582789 37.14293433 -4.45856891 36.72932603 0.5 33.375 C2.5625 33.3125 2.5625 33.3125 4.5 34.375 C7.43355173 38.04193966 8.5 39.60630534 8.5 44.375 C7.25264433 45.0259259 6.00198168 45.67051669 4.75 46.3125 C4.05390625 46.67214844 3.3578125 47.03179687 2.640625 47.40234375 C-4.35268268 50.57995983 -13.10902397 50.57520011 -20.4296875 48.57421875 C-26.80041681 45.75676855 -30.47788296 41.60881338 -33.5 35.375 C-35.97544981 28.16126589 -35.7313763 18.05576852 -32.53515625 11.11328125 C-25.59761739 -0.53654816 -13.07972386 -5.89578462 0 0 Z M-18.5 13.375 C-18.83 15.025 -19.16 16.675 -19.5 18.375 C-13.89 18.375 -8.28 18.375 -2.5 18.375 C-4.6310169 11.73849643 -4.6310169 11.73849643 -7.5 9.9375 C-12.3561701 8.57170216 -14.7351373 10.34674087 -18.5 13.375 Z " fill="#E2E7E9" transform="translate(240.5,230.625)"/>
<path d="M0 0 C2.35768737 0.95454295 4.64858859 1.95797179 6.91796875 3.10546875 C6.19555677 7.22251569 4.89443164 10.41034247 2.91796875 14.10546875 C2.34949219 13.96109375 1.78101563 13.81671875 1.1953125 13.66796875 C-3.7046533 12.4900137 -8.04656245 11.89119348 -13.08203125 12.10546875 C-13.41203125 13.42546875 -13.74203125 14.74546875 -14.08203125 16.10546875 C-13.38078125 16.275625 -12.67953125 16.44578125 -11.95703125 16.62109375 C4.08356775 20.71842067 4.08356775 20.71842067 8.91796875 28.10546875 C9.81421796 33.04411097 10.031796 38.48846755 8.03515625 43.1796875 C5.21407194 46.888199 1.42033637 49.17714553 -3.08203125 50.10546875 C-12.60653541 50.93973189 -21.9496482 50.52705745 -30.08203125 45.10546875 C-29.55088019 40.59068477 -27.71582833 37.75880018 -25.08203125 34.10546875 C-24.54835938 34.31042969 -24.0146875 34.51539063 -23.46484375 34.7265625 C-17.66807553 36.82262575 -12.22471059 37.73357376 -6.08203125 38.10546875 C-6.08203125 36.45546875 -6.08203125 34.80546875 -6.08203125 33.10546875 C-7.50515625 32.48671875 -7.50515625 32.48671875 -8.95703125 31.85546875 C-9.59125 31.57832031 -10.22546875 31.30117188 -10.87890625 31.015625 C-12.43363133 30.37333609 -14.00961614 29.78139018 -15.59765625 29.2265625 C-22.17557351 26.87308612 -25.87470294 24.52012537 -29.08203125 18.10546875 C-29.46559636 13.50268739 -29.53167563 11.04072905 -27.51953125 6.85546875 C-20.36760135 -1.21337524 -10.20093676 -2.96072816 0 0 Z " fill="#E2E8E9" transform="translate(387.08203125,229.89453125)"/>
<path d="M0 0 C0.07755118 3.85170857 -0.09552085 6.57193753 -2 10 C-3.75 10.9375 -3.75 10.9375 -6 11 C-6.9075 10.690625 -7.815 10.38125 -8.75 10.0625 C-12.74080744 8.75781295 -15.82018112 8.85586831 -20 9 C-20 9.99 -20 10.98 -20 12 C-18.91332031 12.38091797 -18.91332031 12.38091797 -17.8046875 12.76953125 C-3.13741562 17.99108004 -3.13741562 17.99108004 0 22 C0 22.66 0 23.32 0 24 C0.66 24 1.32 24 2 24 C3.14074947 30.93699001 3.17180216 35.54120397 -0.6875 41.6875 C-5.61093332 46.61093332 -10.04853207 47.21717531 -16.8125 47.4375 C-23.27692075 47.31331689 -28.281605 45.94190156 -34 43 C-34.66 42.67 -35.32 42.34 -36 42 C-35.39301257 37.87248551 -33.96189209 34.6678852 -32 31 C-29.78105868 31.49309807 -27.91710633 32.04144683 -25.875 33.0625 C-21.61244313 34.4524642 -17.44592142 34.15539143 -13 34 C-12.67 32.35 -12.34 30.7 -12 29 C-12.6290625 28.81824219 -13.258125 28.63648438 -13.90625 28.44921875 C-16.61135557 27.65479769 -19.30682912 26.83396485 -22 26 C-23.175625 25.64035156 -23.175625 25.64035156 -24.375 25.2734375 C-29.65158124 23.50811069 -29.65158124 23.50811069 -31.5 20.8125 C-31.665 20.214375 -31.83 19.61625 -32 19 C-32.66 19 -33.32 19 -34 19 C-36.24713812 14.63790835 -36.14405275 11.73964712 -35 7 C-33.09183946 2.30910534 -31.52768647 -0.10803812 -27 -2.4375 C-17.55255658 -6.02101302 -8.8251906 -4.37354578 0 0 Z " fill="#E1E6E8" transform="translate(435,233)"/>
<path d="M0 0 C4.95 0 9.9 0 15 0 C15 16.17 15 32.34 15 49 C10.05 49 5.1 49 0 49 C0 32.83 0 16.66 0 0 Z " fill="#E8ECED" transform="translate(131,230)"/>
<path d="M0 0 C0.66 0 1.32 0 2 0 C2.06058594 1.16917969 2.12117188 2.33835938 2.18359375 3.54296875 C2.26804034 5.09115614 2.35268625 6.63933268 2.4375 8.1875 C2.47681641 8.95642578 2.51613281 9.72535156 2.55664062 10.51757812 C2.77507034 14.43251075 3.08692108 18.17120688 4 22 C4.66 22 5.32 22 6 22 C6.20625 22.9075 6.4125 23.815 6.625 24.75 C8.3204079 28.75732776 10.27549784 29.89484661 14 32 C14.6496875 30.7625 14.6496875 30.7625 15.3125 29.5 C16.1478125 28.2625 16.1478125 28.2625 17 27 C17.99 27 18.98 27 20 27 C19.47731534 24.23723823 18.89130413 21.6739124 18 19 C17.34 19 16.68 19 16 19 C16.33 16.69 16.66 14.38 17 12 C17.2475 12.515625 17.495 13.03125 17.75 13.5625 C20.44200021 19.67047484 20.44200021 19.67047484 25 24 C25 24.66 25 25.32 25 26 C25.94875 26.12375 26.8975 26.2475 27.875 26.375 C31 27 31 27 33 29 C30.39417629 29.93065133 29.35801776 30.14917407 26.75 29.0625 C25.88375 28.5365625 25.88375 28.5365625 25 28 C24.20046862 31.28696233 23.90341064 32.71023192 25 36 C23.68 36 22.36 36 21 36 C21 36.99 21 37.98 21 39 C24.3 39.33 27.6 39.66 31 40 C31 40.66 31 41.32 31 42 C32.79206547 41.85915204 34.58364917 41.71216299 36.375 41.5625 C37.37273437 41.48128906 38.37046875 41.40007812 39.3984375 41.31640625 C41.97927613 41.15034374 41.97927613 41.15034374 44 40 C45.99960012 39.960008 48.00047242 39.95653201 50 40 C50 39.34 50 38.68 50 38 C51.65 38 53.3 38 55 38 C55 37.34 55 36.68 55 36 C55.66 36 56.32 36 57 36 C57 34.02 57 32.04 57 30 C59.97992472 33.33751568 59.97992472 33.33751568 60.0625 36.0625 C57.97482919 39.86942913 53.78052032 40.73658654 49.86328125 42.05859375 C38.22798319 44.89388883 25.36557457 44.29220181 15 38 C12.1796875 35.953125 12.1796875 35.953125 10 34 C10 33.34 10 32.68 10 32 C9.34 32 8.68 32 8 32 C6.5625 30.0234375 6.5625 30.0234375 5 27.375 C4.484375 26.51648438 3.96875 25.65796875 3.4375 24.7734375 C0.39837707 18.90991228 -0.27717737 14.09839101 -0.125 7.625 C-0.11597656 6.88894531 -0.10695312 6.15289062 -0.09765625 5.39453125 C-0.07430144 3.5962112 -0.03843836 1.79806089 0 0 Z " fill="#DB2837" transform="translate(63,237)"/>
<path d="M0 0 C2.47342266 3.71013399 2.38503486 5.61060262 2 10 C0.28855932 13.16616526 -1.55194484 14.91632552 -5 16 C-8.92614277 15.91646505 -10.69938821 15.22219132 -13.875 12.875 C-16 10 -16 10 -16.625 6.5 C-15.84211492 2.11584353 -14.48702387 0.69451844 -11 -2 C-6.98994577 -4.13869559 -3.7635183 -1.95145393 0 0 Z " fill="#D7DCDE" transform="translate(146,210)"/>
<path d="M0 0 C2.20273174 0.48949594 4.1289255 1.05893737 6.1875 2 C10.06167853 3.3774857 13.91999427 3.66222175 18 4 C18 4.33 18 4.66 18 5 C14.37 5 10.74 5 7 5 C7.33 5.99 7.66 6.98 8 8 C8 8.66 8 9.32 8 10 C9.32 10.33 10.64 10.66 12 11 C10.5625 12.5625 10.5625 12.5625 8 14 C3.34981103 14.10072611 -0.10710517 13.59526322 -4 11 C-3.39301257 6.87248551 -1.96189209 3.6678852 0 0 Z " fill="#D1D7DA" transform="translate(403,264)"/>
<path d="M0 0 C0.66 0 1.32 0 2 0 C2.06058594 1.16917969 2.12117188 2.33835938 2.18359375 3.54296875 C2.26804034 5.09115614 2.35268625 6.63933268 2.4375 8.1875 C2.47681641 8.95642578 2.51613281 9.72535156 2.55664062 10.51757812 C2.77507034 14.43251075 3.08692108 18.17120688 4 22 C4.66 22 5.32 22 6 22 C6.165 22.86625 6.33 23.7325 6.5 24.625 C8.35231177 28.79270149 10.59407509 30.23664757 14.3203125 32.703125 C14.87460938 33.13109375 15.42890625 33.5590625 16 34 C16 34.66 16 35.32 16 36 C17.485 36.495 17.485 36.495 19 37 C19 37.66 19 38.32 19 39 C15.56072421 37.7580393 12.74792181 36.44259716 10 34 C10 33.34 10 32.68 10 32 C9.34 32 8.68 32 8 32 C6.5625 30.0234375 6.5625 30.0234375 5 27.375 C4.484375 26.51648438 3.96875 25.65796875 3.4375 24.7734375 C0.39837707 18.90991228 -0.27717737 14.09839101 -0.125 7.625 C-0.11597656 6.88894531 -0.10695312 6.15289062 -0.09765625 5.39453125 C-0.07430144 3.5962112 -0.03843836 1.79806089 0 0 Z " fill="#A02636" transform="translate(63,237)"/>
<path d="M0 0 C10.57815307 -0.38081351 19.45870439 0.04627993 29 5 C28.53411505 10.70709064 27.06242216 14.15939723 24 19 C22.02 18.34 20.04 17.68 18 17 C20.49092811 15.75453595 21.41080733 16.2232422 24 17 C24 14.69 24 12.38 24 10 C24.66 10 25.32 10 26 10 C25.67 8.68 25.34 7.36 25 6 C23.82630859 5.69255859 23.82630859 5.69255859 22.62890625 5.37890625 C21.11103516 4.97478516 21.11103516 4.97478516 19.5625 4.5625 C18.55316406 4.29566406 17.54382813 4.02882812 16.50390625 3.75390625 C14 3 14 3 13 2 C10.81707226 1.76518307 8.62796826 1.58636677 6.4375 1.4375 C5.23996094 1.35371094 4.04242188 1.26992187 2.80859375 1.18359375 C1.88175781 1.12300781 0.95492187 1.06242188 0 1 C0 0.67 0 0.34 0 0 Z " fill="#A42233" transform="translate(93,208)"/>
<path d="M0 0 C2.97992472 3.33751568 2.97992472 3.33751568 3.0625 6.0625 C0.98070783 9.85870925 -3.19930159 10.72334002 -7.09765625 12.0703125 C-11.64479339 13.33874975 -16.12141922 13.293269 -20.8125 13.25 C-21.67037109 13.25773437 -22.52824219 13.26546875 -23.41210938 13.2734375 C-24.23130859 13.27085937 -25.05050781 13.26828125 -25.89453125 13.265625 C-27.00598511 13.26224121 -27.00598511 13.26224121 -28.13989258 13.25878906 C-30 13 -30 13 -32 11 C-30.79601562 11.01160156 -29.59203125 11.02320313 -28.3515625 11.03515625 C-26.77604321 11.04453434 -25.20052225 11.05363452 -23.625 11.0625 C-22.43390625 11.07506836 -22.43390625 11.07506836 -21.21875 11.08789062 C-16.97607778 11.23040151 -16.97607778 11.23040151 -13 10 C-11.00039988 9.960008 -8.99952758 9.95653201 -7 10 C-7 9.34 -7 8.68 -7 8 C-5.35 8 -3.7 8 -2 8 C-2 7.34 -2 6.68 -2 6 C-1.34 6 -0.68 6 0 6 C0 4.02 0 2.04 0 0 Z " fill="#B42E3C" transform="translate(120,267)"/>
<path d="M0 0 C1.32 0 2.64 0 4 0 C4 1.65 4 3.3 4 5 C0.19068824 6.26977059 -1.81618993 5.52074507 -5.6875 4.5625 C-6.86699219 4.27503906 -8.04648437 3.98757812 -9.26171875 3.69140625 C-10.16535156 3.46324219 -11.06898438 3.23507813 -12 3 C-12 2.67 -12 2.34 -12 2 C-3.42857143 1.71428571 -3.42857143 1.71428571 0 4 C0 2.68 0 1.36 0 0 Z " fill="#B1B6BA" transform="translate(387,238)"/>
<path d="M0 0 C2.97992472 3.33751568 2.97992472 3.33751568 3.0625 6.0625 C1.40581212 9.08351908 -0.85938186 9.80656511 -4 11 C-4.99 10.67 -5.98 10.34 -7 10 C-7 9.34 -7 8.68 -7 8 C-5.35 8 -3.7 8 -2 8 C-2 7.34 -2 6.68 -2 6 C-1.34 6 -0.68 6 0 6 C0 4.02 0 2.04 0 0 Z " fill="#99212F" transform="translate(120,267)"/>
<path d="M0 0 C1.37562854 1.28965176 2.70766393 2.62689293 4 4 C4 4.66 4 5.32 4 6 C2.41632253 5.85795259 0.83306682 5.71119847 -0.75 5.5625 C-1.63171875 5.48128906 -2.5134375 5.40007812 -3.421875 5.31640625 C-6 5 -6 5 -10 4 C-6.7 2.68 -3.4 1.36 0 0 Z " fill="#A22235" transform="translate(116,261)"/>
<path d="M0 0 C2.97 0.495 2.97 0.495 6 1 C6 1.66 6 2.32 6 3 C-0.31715405 6.44572039 -5.90370975 6.31461385 -13 6 C-13 5.67 -13 5.34 -13 5 C-9.37 5 -5.74 5 -2 5 C-1.34 3.35 -0.68 1.7 0 0 Z " fill="#B0B7BB" transform="translate(332,274)"/>
<path d="M0 0 C0.2475 0.515625 0.495 1.03125 0.75 1.5625 C3.44200021 7.67047484 3.44200021 7.67047484 8 12 C7.67 12.66 7.34 13.32 7 14 C4.00675737 12.9024777 3.15389099 12.32317108 1.75 9.375 C1.5025 8.59125 1.255 7.8075 1 7 C0.34 7 -0.32 7 -1 7 C-0.67 4.69 -0.34 2.38 0 0 Z " fill="#9D222F" transform="translate(80,249)"/>
<path d="M0 0 C4.72254335 1.49132948 4.72254335 1.49132948 6.125 4.0625 C6.41375 4.701875 6.7025 5.34125 7 6 C7.99 6.33 8.98 6.66 10 7 C10 7.66 10 8.32 10 9 C6.55974272 7.75768487 3.69792186 6.50521315 1 4 C0.25 1.8125 0.25 1.8125 0 0 Z " fill="#B12733" transform="translate(72,267)"/>
<path d="M0 0 C0.66 0.33 1.32 0.66 2 1 C1.154375 1.515625 0.30875 2.03125 -0.5625 2.5625 C-4.54229113 5.19353136 -7.72851673 8.55429572 -11 12 C-11 8.39457725 -9.82647335 7.08701086 -7.50390625 4.43359375 C-5.24819932 2.28334844 -2.89569811 1.0939304 0 0 Z " fill="#9CA6AB" transform="translate(221,230)"/>
<path d="M0 0 C4.95 0 9.9 0 15 0 C15.33 0.66 15.66 1.32 16 2 C15.02160156 1.98259766 15.02160156 1.98259766 14.0234375 1.96484375 C9.2238086 1.91529006 4.72215315 2.00586249 0 3 C0 2.01 0 1.02 0 0 Z " fill="#9E2935" transform="translate(92,221)"/>
<path d="M0 0 C2 3.75 2 3.75 2 6 C1.01 6 0.02 6 -1 6 C-2.68798827 7.43750191 -2.68798827 7.43750191 -4 9 C-4 5.00095031 -2.27413033 3.19799578 0 0 Z " fill="#A52533" transform="translate(72,219)"/>
<path d="M0 0 C-1.24176695 0.70226141 -2.49385599 1.38629109 -3.75 2.0625 C-4.79414062 2.63677734 -4.79414062 2.63677734 -5.859375 3.22265625 C-8.36140628 4.1312406 -9.5332355 3.88336837 -12 3 C-10.75823305 2.29773859 -9.50614401 1.61370891 -8.25 0.9375 C-7.20585938 0.36322266 -7.20585938 0.36322266 -6.140625 -0.22265625 C-3.63859372 -1.1312406 -2.4667645 -0.88336837 0 0 Z " fill="#8E222A" transform="translate(92,210)"/>
<path d="M0 0 C1.32 0.33 2.64 0.66 4 1 C4 2.65 4 4.3 4 6 C3.01 6.495 3.01 6.495 2 7 C0 4 0 4 0 0 Z " fill="#C3C9CE" transform="translate(431,232)"/>
<path d="M0 0 C1.98 0.66 3.96 1.32 6 2 C5.67 3.32 5.34 4.64 5 6 C5 5.01 5 4.02 5 3 C4.01 3.66 3.02 4.32 2 5 C1.01 4.67 0.02 4.34 -1 4 C-0.67 2.68 -0.34 1.36 0 0 Z " fill="#BCC2C6" transform="translate(388,231)"/>
<path d="M0 0 C0 0.99 0 1.98 0 3 C-3.96 2.67 -7.92 2.34 -12 2 C-12 1.67 -12 1.34 -12 1 C-7.915021 0.45533613 -4.1274515 0 0 0 Z " fill="#C8D0D6" transform="translate(286,243)"/>
<path d="M0 0 C2.475 0.99 2.475 0.99 5 2 C5 2.66 5 3.32 5 4 C3.1875 4.625 3.1875 4.625 1 5 C0.01 4.34 -0.98 3.68 -2 3 C-1.34 2.01 -0.68 1.02 0 0 Z " fill="#B1B6B8" transform="translate(428,239)"/>
</svg>
