<?xml version="1.0" encoding="UTF-8"?>
<svg version="1.1" xmlns="http://www.w3.org/2000/svg" width="500" height="500">
<path d="M0 0 C1.03125 0.53625 2.0625 1.0725 3.125 1.625 C4.053125 2.305625 4.053125 2.305625 5 3 C5 3.66 5 4.32 5 5 C5.66 5 6.32 5 7 5 C7.4375 7.125 7.4375 7.125 7 10 C4.93639829 12.36870412 2.66692459 14.33816904 0 16 C-0.99 16 -1.98 16 -3 16 C-4.66666667 14.33333333 -6.33333333 12.66666667 -8 11 C-13.88753436 8.13499582 -20.32456554 7.73338874 -26.5390625 9.875 C-32.79213485 13.05381939 -36.7476133 17.24283989 -39 24 C-39.5079081 30.22187421 -39.75354356 35.74503901 -36 41 C-34.06616498 42.76161052 -32.04455632 44.36435494 -30 46 C-30 46.66 -30 47.32 -30 48 C-26.7 48.66 -23.4 49.32 -20 50 C-20 43.07 -20 36.14 -20 29 C-16.33889657 30.83055172 -14.62332645 32.18354967 -11.875 35.0625 C-9.22095 37.91571933 -9.22095 37.91571933 -6 40 C-6 40.66 -6 41.32 -6 42 C-5.34 42 -4.68 42 -4 42 C-4 42.66 -4 43.32 -4 44 C-3.34 44 -2.68 44 -2 44 C-2 44.66 -2 45.32 -2 46 C-1.34 46 -0.68 46 0 46 C0 46.66 0 47.32 0 48 C0.66 48 1.32 48 2 48 C3.68732277 49.98260426 5.35366057 51.9832342 7 54 C7.99 54.495 7.99 54.495 9 55 C9 55.66 9 56.32 9 57 C9.639375 57.268125 10.27875 57.53625 10.9375 57.8125 C13 59 13 59 14 62 C11.41554227 62.1081866 8.83562648 62.18737237 6.25 62.25 C5.52039063 62.28351563 4.79078125 62.31703125 4.0390625 62.3515625 C0.32855625 62.41902625 -1.57156961 62.34327652 -4.515625 59.984375 C-5.00546875 59.32953125 -5.4953125 58.6746875 -6 58 C-6.226875 58.639375 -6.45375 59.27875 -6.6875 59.9375 C-8 62 -8 62 -10.2578125 62.61328125 C-21.95985267 64.26356897 -31.40061709 62.2525645 -41.08984375 55.5 C-42.88638323 54.08922053 -44.50341844 52.72646399 -46 51 C-46 50.34 -46 49.68 -46 49 C-46.66 49 -47.32 49 -48 49 C-48.6509259 47.75264433 -49.29551669 46.50198168 -49.9375 45.25 C-50.29714844 44.55390625 -50.65679687 43.8578125 -51.02734375 43.140625 C-54.38811864 35.74422082 -54.47682524 23.99232702 -51.75 16.375 C-49.99906293 12.99819279 -48.32788329 10.00372038 -46 7 C-45.34 7 -44.68 7 -44 7 C-44 6.34 -44 5.68 -44 5 C-43.34 5 -42.68 5 -42 5 C-42 4.34 -42 3.68 -42 3 C-40.65144233 2.19881608 -39.29578257 1.40958392 -37.9375 0.625 C-37.18339844 0.18414062 -36.42929688 -0.25671875 -35.65234375 -0.7109375 C-24.52379914 -6.11950852 -10.83201212 -5.87175608 0 0 Z " fill="#F32A49" transform="translate(122,224)"/>
<path d="M0 0 C25 0 25 0 36 4 C36 4.66 36 5.32 36 6 C36.66 6 37.32 6 38 6 C38 6.66 38 7.32 38 8 C38.66 8 39.32 8 40 8 C41.86240268 11.96130094 42.27038625 15.13734227 42.25 19.5 C42.25773437 21.15515625 42.25773437 21.15515625 42.265625 22.84375 C42.00303615 25.96392334 41.32438782 28.18304814 40 31 C39.34 31 38.68 31 38 31 C38 31.66 38 32.32 38 33 C37.34 33 36.68 33 36 33 C36 33.66 36 34.32 36 35 C29.6963201 37.84283603 24.68534991 39.13939945 17.6875 39.0625 C15.810625 39.041875 13.93375 39.02125 12 39 C12 44.94 12 50.88 12 57 C8.04 57 4.08 57 0 57 C0 38.19 0 19.38 0 0 Z M12 12 C12 16.95 12 21.9 12 27 C14.8153125 27.0928125 14.8153125 27.0928125 17.6875 27.1875 C19.27111328 27.23970703 19.27111328 27.23970703 20.88671875 27.29296875 C24.41892149 26.96057828 26.21692236 26.17349869 29 24 C30.33660145 20.64407137 30.33660145 20.64407137 30 17 C28.53331024 13.77741287 28.53331024 13.77741287 25 12 C20.57743685 11.58287796 16.46128579 11.77468254 12 12 Z " fill="#E3E6E8" transform="translate(272,225)"/>
<path d="M0 0 C1.42892578 0.11794922 1.42892578 0.11794922 2.88671875 0.23828125 C5.3125 0.6875 5.3125 0.6875 7.3125 2.6875 C7.6425 2.0275 7.9725 1.3675 8.3125 0.6875 C12.6025 0.6875 16.8925 0.6875 21.3125 0.6875 C21.3125 13.8875 21.3125 27.0875 21.3125 40.6875 C17.0225 40.6875 12.7325 40.6875 8.3125 40.6875 C7.9825 40.0275 7.6525 39.3675 7.3125 38.6875 C6.52875 39.1825 5.745 39.6775 4.9375 40.1875 C-0.22940432 42.32552937 -5.33334449 42.83361105 -10.7109375 40.99609375 C-16.21388376 38.12446895 -19.77096983 34.04429188 -22 28.3125 C-23.52883938 20.25134691 -22.87049314 14.75810776 -18.6875 7.6875 C-13.063409 1.24037129 -8.44132408 -0.77158078 0 0 Z M-8.6875 14.6875 C-10.30992906 17.93235812 -10.23947119 21.1808595 -9.6875 24.6875 C-8.39738135 27.68309257 -7.36409284 28.50252626 -4.6875 30.6875 C-0.39435541 31.68057615 3.02127781 31.46223331 6.8125 29.1875 C9.39348683 24.88585529 9.81070955 20.72562998 8.625 15.875 C7.06159596 13.26932661 6.02828026 12.08208986 3.3125 10.6875 C-2.17424271 9.98918729 -4.77883261 10.77883261 -8.6875 14.6875 Z " fill="#E1E5E6" transform="translate(339.6875,241.3125)"/>
<path d="M0 0 C4.79016903 2.8779259 8.04971831 7.2428102 10.39453125 12.23828125 C10.95703125 15.17578125 10.95703125 15.17578125 10.95703125 22.17578125 C1.05703125 22.50578125 -8.84296875 22.83578125 -19.04296875 23.17578125 C-16.76445383 28.13483618 -16.76445383 28.13483618 -14.02734375 28.953125 C-8.84600786 29.32451446 -4.9416954 28.9476611 -0.04296875 27.17578125 C-0.04296875 26.51578125 -0.04296875 25.85578125 -0.04296875 25.17578125 C1.27703125 25.83578125 2.59703125 26.49578125 3.95703125 27.17578125 C3.95703125 27.83578125 3.95703125 28.49578125 3.95703125 29.17578125 C4.61703125 29.17578125 5.27703125 29.17578125 5.95703125 29.17578125 C5.95703125 29.83578125 5.95703125 30.49578125 5.95703125 31.17578125 C6.61703125 31.17578125 7.27703125 31.17578125 7.95703125 31.17578125 C6.4493847 35.39719159 3.74410256 36.97927989 -0.04296875 39.17578125 C-6.43909325 41.24431513 -14.36734799 41.37600306 -20.48046875 38.48828125 C-24.97160091 35.85522664 -28.16415943 32.49399523 -31.04296875 28.17578125 C-32.51979414 20.78055035 -32.56989307 13.95722516 -29.04296875 7.17578125 C-26.98046875 4.61328125 -26.98046875 4.61328125 -25.04296875 3.17578125 C-24.38296875 3.17578125 -23.72296875 3.17578125 -23.04296875 3.17578125 C-23.04296875 2.51578125 -23.04296875 1.85578125 -23.04296875 1.17578125 C-15.11050483 -1.90906583 -8.1573347 -3.3948671 0 0 Z M-16.04296875 10.17578125 C-16.70296875 11.49578125 -17.36296875 12.81578125 -18.04296875 14.17578125 C-12.76296875 14.17578125 -7.48296875 14.17578125 -2.04296875 14.17578125 C-3.6218892 9.92688403 -3.6218892 9.92688403 -7.35546875 8.80078125 C-11.23488181 8.14325361 -12.74772643 8.10448608 -16.04296875 10.17578125 Z " fill="#E5E8E9" transform="translate(254.04296875,242.82421875)"/>
<path d="M0 0 C4.9775283 5.58086507 6.19569176 11.14138051 6.16015625 18.390625 C6.15693359 19.55078125 6.15371094 20.7109375 6.15039062 21.90625 C6.13782227 23.71609375 6.13782227 23.71609375 6.125 25.5625 C6.12048828 26.78453125 6.11597656 28.0065625 6.11132812 29.265625 C6.09954826 32.28127092 6.08161301 35.29689165 6.0625 38.3125 C1.7725 38.3125 -2.5175 38.3125 -6.9375 38.3125 C-7.4325 24.4525 -7.4325 24.4525 -7.9375 10.3125 C-16.02954062 8.77703677 -16.02954062 8.77703677 -19.9375 10.3125 C-21.14967585 13.41673388 -21.13094453 16.65072455 -21.25390625 19.953125 C-21.31674805 21.55800781 -21.31674805 21.55800781 -21.38085938 23.1953125 C-21.42017578 24.30648438 -21.45949219 25.41765625 -21.5 26.5625 C-21.54318359 27.68914062 -21.58636719 28.81578125 -21.63085938 29.9765625 C-21.73681933 32.75506799 -21.8376526 35.53376814 -21.9375 38.3125 C-25.8975 38.3125 -29.8575 38.3125 -33.9375 38.3125 C-33.9375 25.1125 -33.9375 11.9125 -33.9375 -1.6875 C-29.9775 -1.6875 -26.0175 -1.6875 -21.9375 -1.6875 C-21.6075 -0.6975 -21.2775 0.2925 -20.9375 1.3125 C-20.07125 0.6009375 -20.07125 0.6009375 -19.1875 -0.125 C-13.53242854 -4.05213296 -5.79515519 -3.3291317 0 0 Z " fill="#E2E5E6" transform="translate(210.9375,243.6875)"/>
<path d="M0 0 C1.1240625 0.07863281 2.248125 0.15726563 3.40625 0.23828125 C6.24706828 0.6507738 8.06458663 1.22505815 10.5 2.6875 C9.75 9.3125 9.75 9.3125 7.5 12.6875 C6.4790625 12.4709375 6.4790625 12.4709375 5.4375 12.25 C2.13726918 11.61804091 -1.17144426 11.14436059 -4.5 10.6875 C-4.5 11.6775 -4.5 12.6675 -4.5 13.6875 C-3.28763672 14.12449219 -3.28763672 14.12449219 -2.05078125 14.5703125 C9.26519388 18.9110605 9.26519388 18.9110605 12.5 24.6875 C13.20575798 29.07888296 12.85797641 31.04561126 10.6875 34.9375 C6.04054054 40.77939189 6.04054054 40.77939189 1.5 41.6875 C-6.39553631 42.45687335 -12.39536648 41.13964297 -19.5 37.6875 C-18.81620454 33.73741941 -17.71156817 31.05292982 -15.5 27.6875 C-14.91992188 27.91566406 -14.33984375 28.14382813 -13.7421875 28.37890625 C-8.99801304 30.12469982 -5.50975623 31.31567078 -0.5 29.6875 C-0.17 29.0275 0.16 28.3675 0.5 27.6875 C-0.06847656 27.51734375 -0.63695312 27.3471875 -1.22265625 27.171875 C-13.28277635 23.38672879 -13.28277635 23.38672879 -16.9375 18.9375 C-18.11239593 14.23791628 -18.20017837 10.26290134 -16.25 5.875 C-11.54069675 -0.01162906 -7.27068207 -0.55864186 0 0 Z " fill="#DDE0E2" transform="translate(420.5,241.3125)"/>
<path d="M0 0 C1.39195915 4.17587745 -0.17676781 6.13474776 -2 10 C-3.2684375 9.7834375 -3.2684375 9.7834375 -4.5625 9.5625 C-8.03593149 8.9941203 -11.51445662 8.48797607 -15 8 C-15 9.32 -15 10.64 -15 12 C-14.26394531 12.15855469 -13.52789062 12.31710937 -12.76953125 12.48046875 C-6.68724054 13.9347549 -2.91174232 15.04512639 1 20 C1.33 20.33 1.66 20.66 2 21 C2.12494616 22.62139437 2.17571624 24.24884122 2.1875 25.875 C2.20167969 26.75929688 2.21585937 27.64359375 2.23046875 28.5546875 C2 31 2 31 0 34 C-0.66 34 -1.32 34 -2 34 C-2 34.66 -2 35.32 -2 36 C-7.51684232 39.57849232 -12.63805962 39.78881201 -19 39 C-22.52628781 38.03050847 -25.8755026 36.92227309 -29 35 C-29.495 33.515 -29.495 33.515 -30 32 C-29.00390625 30.17578125 -29.00390625 30.17578125 -27.5625 28.3125 C-27.08941406 27.68988281 -26.61632812 27.06726563 -26.12890625 26.42578125 C-25.75636719 25.95527344 -25.38382812 25.48476563 -25 25 C-24.505 25.309375 -24.01 25.61875 -23.5 25.9375 C-19.19472439 27.76724214 -14.66240185 28 -10 28 C-11.20045185 24.86648572 -11.20045185 24.86648572 -13.953125 23.12890625 C-14.71109375 22.94199219 -15.4690625 22.75507813 -16.25 22.5625 C-21.07907551 21.06462844 -23.79299108 20.02931889 -27 16 C-27.79205304 11.86180983 -27.76846847 8.14055398 -27 4 C-20.69540751 -5.0065607 -9.09085541 -4.83386841 0 0 Z " fill="#E6E9EA" transform="translate(396,244)"/>
<path d="M0 0 C4.29 0 8.58 0 13 0 C13 13.2 13 26.4 13 40 C8.71 40 4.42 40 0 40 C0 26.8 0 13.6 0 0 Z " fill="#FDFEFE" transform="translate(156,242)"/>
<path d="M0 0 C0 0.66 0 1.32 0 2 C-0.66 2.66 -1.32 3.32 -2 4 C-1.6814823 6.10820797 -1.6814823 6.10820797 -1 8 C-1.66 8 -2.32 8 -3 8 C-2.67 15.26 -2.34 22.52 -2 30 C-1.01 30.33 -0.02 30.66 1 31 C1.13277344 31.64453125 1.26554687 32.2890625 1.40234375 32.953125 C1.59957031 33.62859375 1.79679687 34.3040625 2 35 C4.08034294 36.1375213 4.08034294 36.1375213 6.5625 36.75 C7.38878906 36.99234375 8.21507813 37.2346875 9.06640625 37.484375 C9.70449219 37.65453125 10.34257813 37.8246875 11 38 C11 39.98 11 41.96 11 44 C8.74778616 45.36741555 7.47442242 46.04066478 4.8125 45.8125 C4.214375 45.544375 3.61625 45.27625 3 45 C2.67 44.01 2.34 43.02 2 42 C-0.07883627 41.30580103 -0.07883627 41.30580103 -2.5 41 C-4.96875 40.625 -4.96875 40.625 -7 40 C-7.495 38.515 -7.495 38.515 -8 37 C-8.66 37 -9.32 37 -10 37 C-13.63496403 30.77889555 -14.58597468 26.27593118 -14.375 19.125 C-14.37371094 18.27164063 -14.37242188 17.41828125 -14.37109375 16.5390625 C-14.28198987 10.28198987 -14.28198987 10.28198987 -12 8 C-11.3574765 5.93125966 -11.3574765 5.93125966 -11 4 C-10.01 4 -9.02 4 -8 4 C-7.67 3.34 -7.34 2.68 -7 2 C-4.37418862 0.42451317 -3.12900213 0 0 0 Z " fill="#F82A49" transform="translate(84,236)"/>
<path d="M0 0 C2.4375 1.5625 2.4375 1.5625 4 4 C3.9375 7.625 3.9375 7.625 3 11 C-0.48868651 13.32579101 -1.89718519 13.41865457 -6 13 C-8.375 11.875 -8.375 11.875 -10 10 C-10.62060815 6.35392711 -10.47464453 4.69371124 -8.375 1.625 C-5.28813568 -0.48706506 -3.6717087 -0.61195145 0 0 Z " fill="#DBDFE0" transform="translate(166,225)"/>
<path d="M0 0 C4.29 0 8.58 0 13 0 C13 13.2 13 26.4 13 40 C8.71 40 4.42 40 0 40 C0 26.8 0 13.6 0 0 Z M1 1 C1.33 2.65 1.66 4.3 2 6 C2.08139854 8.5790208 2.11677186 11.12918413 2.09765625 13.70703125 C2.0962413 14.43242599 2.09482635 15.15782074 2.09336853 15.90519714 C2.08779931 18.2076745 2.07525261 20.51005235 2.0625 22.8125 C2.05748102 24.37955588 2.05291881 25.9466133 2.04882812 27.51367188 C2.03783998 31.34248589 2.02059673 35.17122611 2 39 C5.3 39 8.6 39 12 39 C12 26.46 12 13.92 12 1 C8.37 1 4.74 1 1 1 Z " fill="#898F96" transform="translate(156,242)"/>
<path d="M0 0 C3.48330216 0.64505596 6.09432866 1.98217268 9 4 C9 4.66 9 5.32 9 6 C9.66 6 10.32 6 11 6 C11.4375 8.125 11.4375 8.125 11 11 C8.93639829 13.36870412 6.66692459 15.33816904 4 17 C3.01 17 2.02 17 1 17 C-0.66666667 15.33333333 -2.33333333 13.66666667 -4 12 C-6.66533035 10.680982 -6.66533035 10.680982 -9 10 C-4.99799622 8.39919849 -1.95443764 9.70720308 2 11 C2.66 9.35 3.32 7.7 4 6 C3.34 5.34 2.68 4.68 2 4 C2 3.01 2 2.02 2 1 C1.34 0.67 0.68 0.34 0 0 Z " fill="#D72C49" transform="translate(118,223)"/>
<path d="M0 0 C0.66 0.33 1.32 0.66 2 1 C1.67 1.66 1.34 2.32 1 3 C0.01 3 -0.98 3 -2 3 C-2.1546875 4.3921875 -2.1546875 4.3921875 -2.3125 5.8125 C-3.03244329 9.1504189 -3.54453438 9.85146758 -6 12 C-6.33 12.99 -6.66 13.98 -7 15 C-7.99 15 -8.98 15 -10 15 C-10.144375 15.804375 -10.28875 16.60875 -10.4375 17.4375 C-11 20 -11 20 -12 21 C-12.23653523 23.52596259 -12.42173692 26.03107207 -12.5625 28.5625 C-12.60568359 29.27341797 -12.64886719 29.98433594 -12.69335938 30.71679688 C-12.79971777 32.47761912 -12.90038846 34.2387832 -13 36 C-13.33 36 -13.66 36 -14 36 C-14.37911408 24.43000005 -14.41490339 15.56761727 -7 6 C-6.34 6 -5.68 6 -5 6 C-5 5.34 -5 4.68 -5 4 C-4.34 4 -3.68 4 -3 4 C-3 3.34 -3 2.68 -3 2 C-2.01 1.34 -1.02 0.68 0 0 Z " fill="#BC2741" transform="translate(83,225)"/>
<path d="M0 0 C0.66 0.33 1.32 0.66 2 1 C1.67 7.93 1.34 14.86 1 22 C-8.09230769 22 -8.09230769 22 -11.875 20.25 C-12.61492187 19.92515625 -13.35484375 19.6003125 -14.1171875 19.265625 C-16.35082516 17.76417562 -16.91015907 16.41532315 -18 14 C-18.66 13.67 -19.32 13.34 -20 13 C-20 10.69 -20 8.38 -20 6 C-18 8 -18 8 -16.6875 10.375 C-14.81853599 13.28227734 -12.69947937 14.88419184 -10 17 C-10 17.66 -10 18.32 -10 19 C-6.7 19.66 -3.4 20.32 0 21 C0 14.07 0 7.14 0 0 Z " fill="#8B1931" transform="translate(102,253)"/>
<path d="M0 0 C1.98 0 3.96 0 6 0 C6 0.66 6 1.32 6 2 C6.66 2 7.32 2 8 2 C8.33 1.34 8.66 0.68 9 0 C9.020625 0.763125 9.04125 1.52625 9.0625 2.3125 C9.76917927 5.29864931 9.76917927 5.29864931 12.9375 6.625 C17.51935592 8.43890721 22.05955401 8.55766874 26.9375 8.6875 C28.24944336 8.73874023 28.24944336 8.73874023 29.58789062 8.79101562 C31.72483254 8.87275657 33.86239218 8.9380713 36 9 C36 9.33 36 9.66 36 10 C26.07510033 12.20949292 16.3566404 11.59538484 7.41015625 6.53515625 C1.29054842 2.58109685 1.29054842 2.58109685 0 0 Z " fill="#AF2641" transform="translate(78,276)"/>
<path d="M0 0 C0.66 0 1.32 0 2 0 C2 0.66 2 1.32 2 2 C2.66 2 3.32 2 4 2 C5.68732277 3.98260426 7.35366057 5.9832342 9 8 C9.66 8.33 10.32 8.66 11 9 C11 9.66 11 10.32 11 11 C11.639375 11.268125 12.27875 11.53625 12.9375 11.8125 C15 13 15 13 16 16 C10.72 16 5.44 16 0 16 C0 15.67 0 15.34 0 15 C6.435 14.505 6.435 14.505 13 14 C10.69 13.67 8.38 13.34 6 13 C6 11.68 6 10.36 6 9 C4.3545622 7.31237149 2.68711423 5.6459651 1 4 C0.1875 1.6875 0.1875 1.6875 0 0 Z " fill="#A5253F" transform="translate(120,270)"/>
<path d="M0 0 C3.61322401 1.806612 4.83748791 2.66418971 7.25 5.625 C8.03117187 6.57246094 8.03117187 6.57246094 8.828125 7.5390625 C9.40820312 8.26222656 9.40820312 8.26222656 10 9 C9.01 9.495 9.01 9.495 8 10 C8 9.34 8 8.68 8 8 C6.7934375 8.2784375 6.7934375 8.2784375 5.5625 8.5625 C4.716875 8.706875 3.87125 8.85125 3 9 C2.67 8.67 2.34 8.34 2 8 C1.67 11.96 1.34 15.92 1 20 C0.67 20 0.34 20 0 20 C0 13.4 0 6.8 0 0 Z " fill="#CB3551" transform="translate(103,254)"/>
<path d="M0 0 C0.99 0.33 1.98 0.66 3 1 C2.59007813 1.42667969 2.18015625 1.85335937 1.7578125 2.29296875 C-3.45163738 8.33742615 -4.30957625 14.19106929 -5 22 C-5.33 22 -5.66 22 -6 22 C-6 17.38 -6 12.76 -6 8 C-5.34 8 -4.68 8 -4 8 C-4 6.68 -4 5.36 -4 4 C-3.34 4 -2.68 4 -2 4 C-2 3.34 -2 2.68 -2 2 C-1.34 2 -0.68 2 0 2 C0 1.34 0 0.68 0 0 Z " fill="#991E3A" transform="translate(87,236)"/>
<path d="M0 0 C0.33 0 0.66 0 1 0 C1.125 3.375 1.125 3.375 1 7 C0.34 7.66 -0.32 8.32 -1 9 C-1.30599063 11.56916657 -1.51087087 14.04758384 -1.625 16.625 C-1.66367188 17.33140625 -1.70234375 18.0378125 -1.7421875 18.765625 C-1.83647724 20.50998524 -1.91932891 22.25495691 -2 24 C-2.33 24 -2.66 24 -3 24 C-3.55353075 7.1070615 -3.55353075 7.1070615 0 0 Z " fill="#8E243B" transform="translate(72,237)"/>
<path d="M0 0 C5.28 0 10.56 0 16 0 C16 0.33 16 0.66 16 1 C15.27554688 1.03738281 14.55109375 1.07476562 13.8046875 1.11328125 C8.15392978 1.49753278 3.97086964 2.06846149 -1 5 C-1.66 5 -2.32 5 -3 5 C-3 4.01 -3 3.02 -3 2 C-2.01 2 -1.02 2 0 2 C0 1.34 0 0.68 0 0 Z " fill="#AE2840" transform="translate(93,231)"/>
<path d="M0 0 C2.5419589 -0.05434116 5.08273682 -0.0938339 7.625 -0.125 C8.33785156 -0.14175781 9.05070312 -0.15851563 9.78515625 -0.17578125 C14.2612164 -0.21684602 17.77949278 0.30913433 22 2 C22 2.33 22 2.66 22 3 C20.52093108 3.02689216 19.04172517 3.04634621 17.5625 3.0625 C16.32693359 3.07990234 16.32693359 3.07990234 15.06640625 3.09765625 C13 3 13 3 12 2 C9.98405418 1.76572222 7.961526 1.58663876 5.9375 1.4375 C4.83277344 1.35371094 3.72804688 1.26992187 2.58984375 1.18359375 C1.73519531 1.12300781 0.88054687 1.06242188 0 1 C0 0.67 0 0.34 0 0 Z " fill="#AE2C41" transform="translate(96,220)"/>
<path d="M0 0 C0.99 0.33 1.98 0.66 3 1 C2.50628906 1.30550781 2.01257813 1.61101562 1.50390625 1.92578125 C-1.77371786 4.26694133 -3.71727246 5.82892969 -4.6875 9.84765625 C-4.91308587 12.57936011 -5.03413012 15.25983923 -5 18 C-5.33 18 -5.66 18 -6 18 C-6.76567413 7.33160718 -6.76567413 7.33160718 -4.921875 4.125 C-3.5625 2.8125 -3.5625 2.8125 -1 1 C-0.67 0.67 -0.34 0.34 0 0 Z " fill="#889198" transform="translate(375,242)"/>
<path d="M0 0 C3.48330216 0.64505596 6.09432866 1.98217268 9 4 C9 4.66 9 5.32 9 6 C9.66 6 10.32 6 11 6 C10.67 6.66 10.34 7.32 10 8 C9.01 7.67 8.02 7.34 7 7 C7 6.34 7 5.68 7 5 C5.35 4.67 3.7 4.34 2 4 C2 3.01 2 2.02 2 1 C1.34 0.67 0.68 0.34 0 0 Z " fill="#9B2542" transform="translate(118,223)"/>
<path d="M0 0 C-0.5775 0.2475 -1.155 0.495 -1.75 0.75 C-5.75745663 2.97636479 -8.20202055 5.80471463 -10 10 C-10.32152515 6.46322336 -10.4131192 4.6037896 -8.375 1.625 C-5.3962104 -0.4131192 -3.53677664 -0.32152515 0 0 Z " fill="#727882" transform="translate(166,225)"/>
<path d="M0 0 C0.5534764 2.07553648 1 3.84365964 1 6 C-2.20380017 8.13586678 -3.01939967 8.23132175 -6.6875 8.125 C-7.89986328 8.09792969 -7.89986328 8.09792969 -9.13671875 8.0703125 C-10.05904297 8.03550781 -10.05904297 8.03550781 -11 8 C-11 7.67 -11 7.34 -11 7 C-9.906875 6.855625 -8.81375 6.71125 -7.6875 6.5625 C-4.06877013 6.11711896 -4.06877013 6.11711896 -1 5 C-0.67 3.35 -0.34 1.7 0 0 Z " fill="#98A0AA" transform="translate(348,265)"/>
<path d="M0 0 C0.66 0.33 1.32 0.66 2 1 C2.08121924 2.60332791 2.13929134 4.20784026 2.1875 5.8125 C2.23970703 7.15248047 2.23970703 7.15248047 2.29296875 8.51953125 C1.95081002 11.41647515 1.24606427 12.22555028 -1 14 C-1.042721 12.33388095 -1.04063832 10.66617115 -1 9 C-0.67 8.67 -0.34 8.34 0 8 C0.07148199 6.64756083 0.08399454 5.29165633 0.0625 3.9375 C0.041875 2.638125 0.02125 1.33875 0 0 Z " fill="#8C99A0" transform="translate(396,264)"/>
<path d="M0 0 C3.8665284 3.222107 4.88059018 6.14922412 6 11 C5.34 11 4.68 11 4 11 C3.32591692 9.73308493 2.66099503 8.46129251 2 7.1875 C1.62875 6.47980469 1.2575 5.77210938 0.875 5.04296875 C0 3 0 3 0 0 Z " fill="#7F1C30" transform="translate(70,262)"/>
<path d="M0 0 C2.64850992 2.64850992 4.33103223 5.66206447 6 9 C4.02 8.34 2.04 7.68 0 7 C0 4.69 0 2.38 0 0 Z " fill="#A8213F" transform="translate(82,259)"/>
<path d="M0 0 C2.64 0.33 5.28 0.66 8 1 C8.66 2.65 9.32 4.3 10 6 C6.7 4.35 3.4 2.7 0 1 C0 0.67 0 0.34 0 0 Z " fill="#9E2742" transform="translate(109,232)"/>
<path d="M0 0 C0.66 0.33 1.32 0.66 2 1 C1.3125 2.9375 1.3125 2.9375 0 5 C-2.625 5.75 -2.625 5.75 -5 6 C-2.25 1.125 -2.25 1.125 0 0 Z " fill="#9AABB0" transform="translate(326,244)"/>
<path d="M0 0 C0.33 0.66 0.66 1.32 1 2 C1.66 2 2.32 2 3 2 C1.95125002 4.62187494 1.35068687 5.79371361 -1.125 7.25 C-1.74375 7.4975 -2.3625 7.745 -3 8 C-2.67 7.01 -2.34 6.02 -2 5 C-1.34 5 -0.68 5 0 5 C0 3.35 0 1.7 0 0 Z " fill="#798790" transform="translate(259,272)"/>
<path d="M0 0 C2.66666667 1.33333333 5.33333333 2.66666667 8 4 C3.25 4.125 3.25 4.125 1 3 C0.01 3.33 -0.98 3.66 -2 4 C-1.34 2.68 -0.68 1.36 0 0 Z " fill="#81969F" transform="translate(371,269)"/>
</svg>
